<?xml version="1.0" encoding="UTF-8" standalone="no"?>
<!DOCTYPE svg PUBLIC "-//W3C//DTD SVG 1.1//EN"
 "http://www.w3.org/Graphics/SVG/1.1/DTD/svg11.dtd">
<!-- Generated by graphviz version 12.1.0 (20240811.2233)
 -->
<!-- Pages: 1 -->
<svg width="944pt" height="587pt"
 viewBox="0.00 0.00 943.67 586.63" xmlns="http://www.w3.org/2000/svg" xmlns:xlink="http://www.w3.org/1999/xlink">
<g id="graph0" class="graph" transform="scale(1 1) rotate(0) translate(4 582.63)">
<polygon fill="white" stroke="none" points="-4,4 -4,-582.63 939.67,-582.63 939.67,4 -4,4"/>
<g id="clust1" class="cluster">
<title>cluster_global</title>
<polygon fill="none" stroke="black" points="294.4,-91 294.4,-301 452,-301 452,-91 294.4,-91"/>
<text text-anchor="middle" x="373.2" y="-283.7" font-family="Times,serif" font-size="14.00">Global</text>
</g>
<g id="clust2" class="cluster">
<title>cluster_frame1</title>
<polygon fill="none" stroke="black" points="82,-385 82,-541 274.4,-541 274.4,-385 82,-385"/>
<text text-anchor="middle" x="178.2" y="-523.7" font-family="Times,serif" font-size="14.00">Frame 1</text>
</g>
<g id="clust3" class="cluster">
<title>cluster_frame2</title>
<polygon fill="none" stroke="black" points="751.96,-400 751.96,-503 895.23,-503 895.23,-400 751.96,-400"/>
<text text-anchor="middle" x="823.59" y="-485.7" font-family="Times,serif" font-size="14.00">Frame 2</text>
</g>
<g id="clust4" class="cluster">
<title>cluster_frame3</title>
<polygon fill="none" stroke="black" points="510.73,-420 510.73,-523 644.79,-523 644.79,-420 510.73,-420"/>
<text text-anchor="middle" x="577.76" y="-505.7" font-family="Times,serif" font-size="14.00">Frame 3</text>
</g>
<g id="clust5" class="cluster">
<title>cluster_frame4</title>
<polygon fill="none" stroke="black" points="87.12,-220 87.12,-377 269.29,-377 269.29,-220 87.12,-220"/>
<text text-anchor="middle" x="178.2" y="-359.7" font-family="Times,serif" font-size="14.00">Frame 4</text>
</g>
<g id="clust6" class="cluster">
<title>cluster_frame5</title>
<polygon fill="none" stroke="black" points="751.96,-27 751.96,-130 895.23,-130 895.23,-27 751.96,-27"/>
<text text-anchor="middle" x="823.59" y="-112.7" font-family="Times,serif" font-size="14.00">Frame 5</text>
</g>
<!-- global_handle -->
<g id="node1" class="node">
<title>global_handle</title>
<ellipse fill="black" stroke="black" cx="373.2" cy="-265" rx="3.6" ry="3.6"/>
</g>
<!-- make_withdraw -->
<g id="node2" class="node">
<title>make_withdraw</title>
<ellipse fill="none" stroke="black" cx="373.2" cy="-225" rx="70.8" ry="18"/>
<text text-anchor="middle" x="373.2" y="-219.95" font-family="Times,serif" font-size="14.00">make_withdraw</text>
</g>
<!-- make_withdraw_pair -->
<g id="node5" class="node">
<title>make_withdraw_pair</title>
<polygon fill="none" stroke="black" points="550.76,-228.5 550.76,-277.5 604.76,-277.5 604.76,-228.5 550.76,-228.5"/>
<text text-anchor="middle" x="577.76" y="-260.2" font-family="Times,serif" font-size="14.00">Env</text>
<polyline fill="none" stroke="black" points="550.76,-253 604.76,-253"/>
<text text-anchor="middle" x="577.76" y="-235.7" font-family="Times,serif" font-size="14.00">Body</text>
</g>
<!-- make_withdraw&#45;&gt;make_withdraw_pair -->
<g id="edge1" class="edge">
<title>make_withdraw&#45;&gt;make_withdraw_pair</title>
<path fill="none" stroke="black" d="M436.08,-233.55C469.72,-238.2 510.23,-243.8 539.13,-247.8"/>
<polygon fill="black" stroke="black" points="538.48,-251.24 548.86,-249.14 539.44,-244.31 538.48,-251.24"/>
</g>
<!-- W1 -->
<g id="node3" class="node">
<title>W1</title>
<ellipse fill="none" stroke="black" cx="373.2" cy="-171" rx="27" ry="18"/>
<text text-anchor="middle" x="373.2" y="-165.95" font-family="Times,serif" font-size="14.00">W1</text>
</g>
<!-- inner_lambda_pair -->
<g id="node16" class="node">
<title>inner_lambda_pair</title>
<polygon fill="none" stroke="black" points="550.76,-160.5 550.76,-209.5 604.76,-209.5 604.76,-160.5 550.76,-160.5"/>
<text text-anchor="middle" x="577.76" y="-192.2" font-family="Times,serif" font-size="14.00">Env</text>
<polyline fill="none" stroke="black" points="550.76,-185 604.76,-185"/>
<text text-anchor="middle" x="577.76" y="-167.7" font-family="Times,serif" font-size="14.00">Body</text>
</g>
<!-- W1&#45;&gt;inner_lambda_pair -->
<g id="edge13" class="edge">
<title>W1&#45;&gt;inner_lambda_pair</title>
<path fill="none" stroke="black" d="M400.27,-172.8C435.57,-175.24 498.8,-179.61 539.22,-182.41"/>
<polygon fill="black" stroke="black" points="538.75,-185.88 548.96,-183.08 539.23,-178.9 538.75,-185.88"/>
</g>
<!-- W2 -->
<g id="node4" class="node">
<title>W2</title>
<ellipse fill="none" stroke="black" cx="373.2" cy="-117" rx="27" ry="18"/>
<text text-anchor="middle" x="373.2" y="-111.95" font-family="Times,serif" font-size="14.00">W2</text>
</g>
<!-- inner_lambda2 -->
<g id="node29" class="node">
<title>inner_lambda2</title>
<polygon fill="none" stroke="black" points="550.76,-92.5 550.76,-141.5 604.76,-141.5 604.76,-92.5 550.76,-92.5"/>
<text text-anchor="middle" x="577.76" y="-124.2" font-family="Times,serif" font-size="14.00">Env</text>
<polyline fill="none" stroke="black" points="550.76,-117 604.76,-117"/>
<text text-anchor="middle" x="577.76" y="-99.7" font-family="Times,serif" font-size="14.00">Body</text>
</g>
<!-- W2&#45;&gt;inner_lambda2 -->
<g id="edge25" class="edge">
<title>W2&#45;&gt;inner_lambda2</title>
<path fill="none" stroke="black" d="M400.68,-117C435.94,-117 498.52,-117 538.8,-117"/>
<polygon fill="black" stroke="black" points="538.76,-120.5 548.76,-117 538.76,-113.5 538.76,-120.5"/>
</g>
<!-- make_withdraw_pair&#45;&gt;global_handle -->
<g id="edge3" class="edge">
<title>make_withdraw_pair:env&#45;&gt;global_handle</title>
<path fill="none" stroke="black" d="M549.76,-265.25C489.79,-265.25 418.3,-265.1 388.42,-265.03"/>
<polygon fill="black" stroke="black" points="388.62,-261.53 378.61,-265.01 388.6,-268.53 388.62,-261.53"/>
</g>
<!-- make_withdraw_body -->
<g id="node6" class="node">
<title>make_withdraw_body</title>
<ellipse fill="none" stroke="black" cx="823.59" cy="-246" rx="97.76" ry="29.97"/>
<text text-anchor="start" x="762.47" y="-249.89" font-family="Times,serif" font-size="14.00">参数: initial_value </text>
<text text-anchor="middle" x="823.59" y="-232.01" font-family="Times,serif" font-size="14.00"> (lambda (balance) ...)</text>
</g>
<!-- make_withdraw_pair&#45;&gt;make_withdraw_body -->
<g id="edge2" class="edge">
<title>make_withdraw_pair:body&#45;&gt;make_withdraw_body</title>
<path fill="none" stroke="black" d="M605.76,-240.75C641.27,-240.75 680.04,-241.46 714.85,-242.36"/>
<polygon fill="black" stroke="black" points="714.4,-245.85 724.49,-242.62 714.58,-238.85 714.4,-245.85"/>
</g>
<!-- frame1_handle -->
<g id="node7" class="node">
<title>frame1_handle</title>
<ellipse fill="black" stroke="black" cx="178.2" cy="-505" rx="3.6" ry="3.6"/>
</g>
<!-- frame1_handle&#45;&gt;global_handle -->
<g id="edge7" class="edge">
<title>frame1_handle&#45;&gt;global_handle</title>
<path fill="none" stroke="black" d="M182.07,-505.7C195.02,-508.66 248.41,-518.84 274.4,-492 304.25,-461.19 269.27,-334.77 294.4,-300 309.47,-279.16 339.87,-270.49 357.89,-267.07"/>
<polygon fill="black" stroke="black" points="358.31,-270.54 367.66,-265.55 357.24,-263.63 358.31,-270.54"/>
</g>
<!-- frame1_values -->
<g id="node8" class="node">
<title>frame1_values</title>
<ellipse fill="none" stroke="black" cx="178.2" cy="-465" rx="88.2" ry="18"/>
<text text-anchor="middle" x="178.2" y="-459.95" font-family="Times,serif" font-size="14.00">initial&#45;amount = 100</text>
</g>
<!-- let_lambda -->
<g id="node9" class="node">
<title>let_lambda</title>
<ellipse fill="none" stroke="black" cx="178.2" cy="-411" rx="62.1" ry="18"/>
<text text-anchor="middle" x="178.2" y="-405.95" font-family="Times,serif" font-size="14.00">&lt;let&#45;lambda&gt;</text>
</g>
<!-- let_lambda_pair -->
<g id="node10" class="node">
<title>let_lambda_pair</title>
<polygon fill="none" stroke="black" points="346.2,-382.5 346.2,-431.5 400.2,-431.5 400.2,-382.5 346.2,-382.5"/>
<text text-anchor="middle" x="373.2" y="-414.2" font-family="Times,serif" font-size="14.00">Env</text>
<polyline fill="none" stroke="black" points="346.2,-407 400.2,-407"/>
<text text-anchor="middle" x="373.2" y="-389.7" font-family="Times,serif" font-size="14.00">Body</text>
</g>
<!-- let_lambda&#45;&gt;let_lambda_pair -->
<g id="edge4" class="edge">
<title>let_lambda&#45;&gt;let_lambda_pair</title>
<path fill="none" stroke="black" d="M240.53,-409.73C271.49,-409.09 308.05,-408.33 334.78,-407.78"/>
<polygon fill="black" stroke="black" points="334.51,-411.28 344.43,-407.58 334.36,-404.28 334.51,-411.28"/>
</g>
<!-- let_lambda_pair&#45;&gt;frame1_handle -->
<g id="edge5" class="edge">
<title>let_lambda_pair:env&#45;&gt;frame1_handle</title>
<path fill="none" stroke="black" d="M345.2,-419.25C320.64,-419.25 311.5,-423.37 294.4,-441 277.45,-458.48 293.54,-476.95 274.4,-492 250.98,-510.42 213.89,-509.46 193.61,-507.2"/>
<polygon fill="black" stroke="black" points="194.15,-503.74 183.75,-505.8 193.16,-510.67 194.15,-503.74"/>
</g>
<!-- let_lambda_body -->
<g id="node11" class="node">
<title>let_lambda_body</title>
<ellipse fill="none" stroke="black" cx="577.76" cy="-326" rx="97.76" ry="29.97"/>
<text text-anchor="start" x="516.64" y="-329.89" font-family="Times,serif" font-size="14.00">参数: balance </text>
<text text-anchor="middle" x="577.76" y="-312.01" font-family="Times,serif" font-size="14.00"> (lambda (amount) ...)</text>
</g>
<!-- let_lambda_pair&#45;&gt;let_lambda_body -->
<g id="edge6" class="edge">
<title>let_lambda_pair:body&#45;&gt;let_lambda_body</title>
<path fill="none" stroke="black" d="M401.2,-394.75C404.14,-394.75 459.05,-373.11 506.69,-354.11"/>
<polygon fill="black" stroke="black" points="507.95,-357.37 515.94,-350.41 505.35,-350.87 507.95,-357.37"/>
</g>
<!-- E1 -->
<g id="node12" class="node">
<title>E1</title>
<ellipse fill="none" stroke="white" cx="27" cy="-505" rx="27" ry="18"/>
<text text-anchor="middle" x="27" y="-499.95" font-family="Times,serif" font-size="14.00">E1</text>
</g>
<!-- E1&#45;&gt;frame1_handle -->
<g id="edge8" class="edge">
<title>E1&#45;&gt;frame1_handle</title>
<path fill="none" stroke="black" d="M54.33,-505C86.07,-505 138.24,-505 163.13,-505"/>
<polygon fill="black" stroke="black" points="162.97,-508.5 172.97,-505 162.97,-501.5 162.97,-508.5"/>
</g>
<!-- frame2_handle -->
<g id="node13" class="node">
<title>frame2_handle</title>
<ellipse fill="black" stroke="black" cx="823.59" cy="-412" rx="3.6" ry="3.6"/>
</g>
<!-- frame2_handle&#45;&gt;frame1_handle -->
<g id="edge9" class="edge">
<title>frame2_handle&#45;&gt;frame1_handle</title>
<path fill="none" stroke="black" d="M819.79,-411.37C806.12,-408.45 745.8,-397.61 711.52,-425 673.96,-455 714.76,-499.23 675.52,-527 517.11,-639.08 253.79,-537.17 192.32,-510.83"/>
<polygon fill="black" stroke="black" points="193.91,-507.7 183.35,-506.88 191.09,-514.11 193.91,-507.7"/>
</g>
<!-- frame2_values -->
<g id="node14" class="node">
<title>frame2_values</title>
<ellipse fill="none" stroke="black" cx="823.59" cy="-452" rx="63.63" ry="18"/>
<text text-anchor="middle" x="823.59" y="-446.95" font-family="Times,serif" font-size="14.00">balance = 100</text>
</g>
<!-- E2 -->
<g id="node15" class="node">
<title>E2</title>
<ellipse fill="none" stroke="white" cx="577.76" cy="-392" rx="27" ry="18"/>
<text text-anchor="middle" x="577.76" y="-386.95" font-family="Times,serif" font-size="14.00">E2</text>
</g>
<!-- E2&#45;&gt;frame2_handle -->
<g id="edge10" class="edge">
<title>E2&#45;&gt;frame2_handle</title>
<path fill="none" stroke="black" d="M604.86,-394.14C656.17,-398.35 768.66,-407.58 808.37,-410.83"/>
<polygon fill="black" stroke="black" points="807.84,-414.3 818.1,-411.63 808.42,-407.33 807.84,-414.3"/>
</g>
<!-- inner_lambda_pair&#45;&gt;frame2_handle -->
<g id="edge11" class="edge">
<title>inner_lambda_pair:env&#45;&gt;frame2_handle</title>
<path fill="none" stroke="black" d="M605.76,-197.25C638.24,-197.25 650.41,-198.41 675.52,-219 701.36,-240.19 692.41,-257.59 711.52,-285 744.2,-331.86 791.56,-381.04 812.26,-401.8"/>
<polygon fill="black" stroke="black" points="809.63,-404.12 819.2,-408.67 814.56,-399.15 809.63,-404.12"/>
</g>
<!-- inner_lambda_body -->
<g id="node17" class="node">
<title>inner_lambda_body</title>
<ellipse fill="none" stroke="black" cx="823.59" cy="-168" rx="112.08" ry="29.97"/>
<text text-anchor="start" x="752.34" y="-171.89" font-family="Times,serif" font-size="14.00">参数: amount </text>
<text text-anchor="middle" x="823.59" y="-154.01" font-family="Times,serif" font-size="14.00"> (if (&gt; balance amount) ...</text>
</g>
<!-- inner_lambda_pair&#45;&gt;inner_lambda_body -->
<g id="edge12" class="edge">
<title>inner_lambda_pair:body&#45;&gt;inner_lambda_body</title>
<path fill="none" stroke="black" d="M605.76,-172.75C636.45,-172.75 669.57,-172.27 700.47,-171.61"/>
<polygon fill="black" stroke="black" points="700.31,-175.12 710.23,-171.4 700.15,-168.12 700.31,-175.12"/>
</g>
<!-- frame3_handle -->
<g id="node18" class="node">
<title>frame3_handle</title>
<ellipse fill="black" stroke="black" cx="577.76" cy="-432" rx="3.6" ry="3.6"/>
</g>
<!-- frame3_handle&#45;&gt;frame2_handle -->
<g id="edge14" class="edge">
<title>frame3_handle&#45;&gt;frame2_handle</title>
<path fill="none" stroke="black" d="M581.84,-431.75C605.63,-429.8 760.23,-417.12 808.33,-413.17"/>
<polygon fill="black" stroke="black" points="808.39,-416.68 818.07,-412.37 807.82,-409.7 808.39,-416.68"/>
</g>
<!-- frame3_values -->
<g id="node19" class="node">
<title>frame3_values</title>
<ellipse fill="none" stroke="black" cx="577.76" cy="-472" rx="59.03" ry="18"/>
<text text-anchor="middle" x="577.76" y="-466.95" font-family="Times,serif" font-size="14.00">amount = 50</text>
</g>
<!-- E3 -->
<g id="node20" class="node">
<title>E3</title>
<ellipse fill="none" stroke="white" cx="373.2" cy="-468" rx="27" ry="18"/>
<text text-anchor="middle" x="373.2" y="-462.95" font-family="Times,serif" font-size="14.00">E3</text>
</g>
<!-- E3&#45;&gt;frame3_handle -->
<g id="edge15" class="edge">
<title>E3&#45;&gt;frame3_handle</title>
<path fill="none" stroke="black" d="M398.89,-462.04C420.26,-457.03 452.05,-449.91 480,-445 509.13,-439.89 543.49,-435.71 562.43,-433.56"/>
<polygon fill="black" stroke="black" points="562.68,-437.05 572.23,-432.48 561.91,-430.1 562.68,-437.05"/>
</g>
<!-- frame4_handle -->
<g id="node21" class="node">
<title>frame4_handle</title>
<ellipse fill="black" stroke="black" cx="178.2" cy="-232" rx="3.6" ry="3.6"/>
</g>
<!-- frame4_handle&#45;&gt;global_handle -->
<g id="edge16" class="edge">
<title>frame4_handle&#45;&gt;global_handle</title>
<path fill="none" stroke="black" d="M182.2,-232.19C194.06,-232.98 238.72,-236.41 274.4,-245 283.56,-247.2 285.28,-249.66 294.4,-252 316.34,-257.63 342.4,-261.41 358.1,-263.38"/>
<polygon fill="black" stroke="black" points="357.35,-266.82 367.69,-264.51 358.17,-259.87 357.35,-266.82"/>
</g>
<!-- frame4_values -->
<g id="node22" class="node">
<title>frame4_values</title>
<ellipse fill="none" stroke="black" cx="178.2" cy="-272" rx="83.08" ry="18"/>
<text text-anchor="middle" x="178.2" y="-266.95" font-family="Times,serif" font-size="14.00">initial&#45;amount=100</text>
</g>
<!-- let_lambda2 -->
<g id="node23" class="node">
<title>let_lambda2</title>
<ellipse fill="none" stroke="black" cx="178.2" cy="-326" rx="63.63" ry="18"/>
<text text-anchor="middle" x="178.2" y="-320.95" font-family="Times,serif" font-size="14.00">&lt;let&#45;lambda&gt;&#39;</text>
</g>
<!-- let_lambda2_pair -->
<g id="node25" class="node">
<title>let_lambda2_pair</title>
<polygon fill="none" stroke="black" points="346.2,-309.5 346.2,-358.5 400.2,-358.5 400.2,-309.5 346.2,-309.5"/>
<text text-anchor="middle" x="373.2" y="-341.2" font-family="Times,serif" font-size="14.00">Env</text>
<polyline fill="none" stroke="black" points="346.2,-334 400.2,-334"/>
<text text-anchor="middle" x="373.2" y="-316.7" font-family="Times,serif" font-size="14.00">Body</text>
</g>
<!-- let_lambda2&#45;&gt;let_lambda2_pair -->
<g id="edge20" class="edge">
<title>let_lambda2&#45;&gt;let_lambda2_pair</title>
<path fill="none" stroke="black" d="M241.6,-328.59C272.16,-329.85 307.96,-331.34 334.34,-332.43"/>
<polygon fill="black" stroke="black" points="334.1,-335.92 344.23,-332.84 334.39,-328.93 334.1,-335.92"/>
</g>
<!-- E4 -->
<g id="node24" class="node">
<title>E4</title>
<ellipse fill="none" stroke="white" cx="27" cy="-232" rx="27" ry="18"/>
<text text-anchor="middle" x="27" y="-226.95" font-family="Times,serif" font-size="14.00">E4</text>
</g>
<!-- E4&#45;&gt;frame4_handle -->
<g id="edge17" class="edge">
<title>E4&#45;&gt;frame4_handle</title>
<path fill="none" stroke="black" d="M54.33,-232C86.07,-232 138.24,-232 163.13,-232"/>
<polygon fill="black" stroke="black" points="162.97,-235.5 172.97,-232 162.97,-228.5 162.97,-235.5"/>
</g>
<!-- let_lambda2_pair&#45;&gt;let_lambda_body -->
<g id="edge19" class="edge">
<title>let_lambda2_pair:body&#45;&gt;let_lambda_body</title>
<path fill="none" stroke="black" d="M401.2,-321.75C423.11,-321.75 446.55,-322.08 468.94,-322.57"/>
<polygon fill="black" stroke="black" points="468.6,-326.06 478.67,-322.79 468.75,-319.06 468.6,-326.06"/>
</g>
<!-- let_lambda2_pair&#45;&gt;frame4_handle -->
<g id="edge18" class="edge">
<title>let_lambda2_pair:env&#45;&gt;frame4_handle</title>
<path fill="none" stroke="black" d="M345.2,-346.25C316.12,-346.25 310.95,-328.92 294.4,-305 278.41,-281.88 296.04,-262.94 274.4,-245 251.26,-225.81 213.51,-227.2 193.2,-229.7"/>
<polygon fill="black" stroke="black" points="192.79,-226.22 183.44,-231.21 193.86,-233.14 192.79,-226.22"/>
</g>
<!-- frame5_handle -->
<g id="node26" class="node">
<title>frame5_handle</title>
<ellipse fill="black" stroke="black" cx="823.59" cy="-39" rx="3.6" ry="3.6"/>
</g>
<!-- frame5_handle&#45;&gt;frame4_handle -->
<g id="edge21" class="edge">
<title>frame5_handle&#45;&gt;frame4_handle</title>
<path fill="none" stroke="black" d="M819.55,-39.13C778.87,-40.89 343.83,-60.32 294.4,-87 237.72,-117.6 199.2,-189.12 185.13,-218.76"/>
<polygon fill="black" stroke="black" points="182.1,-216.98 181.14,-227.53 188.47,-219.88 182.1,-216.98"/>
</g>
<!-- frame5_values -->
<g id="node27" class="node">
<title>frame5_values</title>
<ellipse fill="none" stroke="black" cx="823.59" cy="-79" rx="63.63" ry="18"/>
<text text-anchor="middle" x="823.59" y="-73.95" font-family="Times,serif" font-size="14.00">blanace = 100</text>
</g>
<!-- E5 -->
<g id="node28" class="node">
<title>E5</title>
<ellipse fill="none" stroke="white" cx="577.76" cy="-18" rx="27" ry="18"/>
<text text-anchor="middle" x="577.76" y="-12.95" font-family="Times,serif" font-size="14.00">E5</text>
</g>
<!-- E5&#45;&gt;frame5_handle -->
<g id="edge22" class="edge">
<title>E5&#45;&gt;frame5_handle</title>
<path fill="none" stroke="black" d="M604.86,-20.25C656.17,-24.67 768.66,-34.36 808.37,-37.78"/>
<polygon fill="black" stroke="black" points="807.83,-41.24 818.1,-38.61 808.43,-34.27 807.83,-41.24"/>
</g>
<!-- inner_lambda2&#45;&gt;inner_lambda_body -->
<g id="edge24" class="edge">
<title>inner_lambda2:body&#45;&gt;inner_lambda_body</title>
<path fill="none" stroke="black" d="M605.76,-104.75C612.8,-104.75 680.14,-124.64 737.93,-142.11"/>
<polygon fill="black" stroke="black" points="736.56,-145.36 747.14,-144.91 738.59,-138.66 736.56,-145.36"/>
</g>
<!-- inner_lambda2&#45;&gt;frame5_handle -->
<g id="edge23" class="edge">
<title>inner_lambda2:env&#45;&gt;frame5_handle</title>
<path fill="none" stroke="black" d="M605.76,-129.25C663.97,-129.25 657.33,-73.25 711.52,-52 744.42,-39.1 786.68,-37.97 808.36,-38.4"/>
<polygon fill="black" stroke="black" points="808.09,-41.89 818.21,-38.76 808.34,-34.89 808.09,-41.89"/>
</g>
</g>
</svg>
