<?xml version="1.0" encoding="UTF-8" standalone="no"?>
<!DOCTYPE svg PUBLIC "-//W3C//DTD SVG 1.1//EN"
 "http://www.w3.org/Graphics/SVG/1.1/DTD/svg11.dtd">
<!-- Generated by graphviz version 9.0.0 (20230911.1827)
 -->
<!-- Pages: 1 -->
<svg width="222pt" height="260pt"
 viewBox="0.00 0.00 222.00 260.00" xmlns="http://www.w3.org/2000/svg" xmlns:xlink="http://www.w3.org/1999/xlink">
<g id="graph0" class="graph" transform="scale(1 1) rotate(0) translate(4 256)">
<polygon fill="white" stroke="none" points="-4,4 -4,-256 218,-256 218,4 -4,4"/>
<!-- (1 (2 (3 4))) -->
<g id="node1" class="node">
<title>(1 (2 (3 4)))</title>
<ellipse fill="none" stroke="black" cx="70" cy="-234" rx="55.45" ry="18"/>
<text text-anchor="middle" x="70" y="-228.95" font-family="Times,serif" font-size="14.00">(1 (2 (3 4)))</text>
</g>
<!-- 1 -->
<g id="node2" class="node">
<title>1</title>
<ellipse fill="none" stroke="black" cx="27" cy="-162" rx="27" ry="18"/>
<text text-anchor="middle" x="27" y="-156.95" font-family="Times,serif" font-size="14.00">1</text>
</g>
<!-- (1 (2 (3 4)))&#45;&#45;1 -->
<g id="edge1" class="edge">
<title>(1 (2 (3 4)))&#45;&#45;1</title>
<path fill="none" stroke="black" d="M59.59,-216.05C52.63,-204.73 43.54,-189.92 36.72,-178.83"/>
</g>
<!-- (2 (3 4)) -->
<g id="node3" class="node">
<title>(2 (3 4))</title>
<ellipse fill="none" stroke="black" cx="114" cy="-162" rx="42.14" ry="18"/>
<text text-anchor="middle" x="114" y="-156.95" font-family="Times,serif" font-size="14.00">(2 (3 4))</text>
</g>
<!-- (1 (2 (3 4)))&#45;&#45;(2 (3 4)) -->
<g id="edge2" class="edge">
<title>(1 (2 (3 4)))&#45;&#45;(2 (3 4))</title>
<path fill="none" stroke="black" d="M80.65,-216.05C87.57,-205.05 96.55,-190.76 103.45,-179.79"/>
</g>
<!-- 2 -->
<g id="node4" class="node">
<title>2</title>
<ellipse fill="none" stroke="black" cx="77" cy="-90" rx="27" ry="18"/>
<text text-anchor="middle" x="77" y="-84.95" font-family="Times,serif" font-size="14.00">2</text>
</g>
<!-- (2 (3 4))&#45;&#45;2 -->
<g id="edge3" class="edge">
<title>(2 (3 4))&#45;&#45;2</title>
<path fill="none" stroke="black" d="M105.04,-144.05C99.14,-132.89 91.45,-118.34 85.62,-107.31"/>
</g>
<!-- (3 4) -->
<g id="node5" class="node">
<title>(3 4)</title>
<ellipse fill="none" stroke="black" cx="151" cy="-90" rx="28.83" ry="18"/>
<text text-anchor="middle" x="151" y="-84.95" font-family="Times,serif" font-size="14.00">(3 4)</text>
</g>
<!-- (2 (3 4))&#45;&#45;(3 4) -->
<g id="edge4" class="edge">
<title>(2 (3 4))&#45;&#45;(3 4)</title>
<path fill="none" stroke="black" d="M122.96,-144.05C128.86,-132.89 136.55,-118.34 142.38,-107.31"/>
</g>
<!-- 3 -->
<g id="node6" class="node">
<title>3</title>
<ellipse fill="none" stroke="black" cx="115" cy="-18" rx="27" ry="18"/>
<text text-anchor="middle" x="115" y="-12.95" font-family="Times,serif" font-size="14.00">3</text>
</g>
<!-- (3 4)&#45;&#45;3 -->
<g id="edge5" class="edge">
<title>(3 4)&#45;&#45;3</title>
<path fill="none" stroke="black" d="M142.47,-72.41C136.73,-61.25 129.2,-46.6 123.47,-35.47"/>
</g>
<!-- 4 -->
<g id="node7" class="node">
<title>4</title>
<ellipse fill="none" stroke="black" cx="187" cy="-18" rx="27" ry="18"/>
<text text-anchor="middle" x="187" y="-12.95" font-family="Times,serif" font-size="14.00">4</text>
</g>
<!-- (3 4)&#45;&#45;4 -->
<g id="edge6" class="edge">
<title>(3 4)&#45;&#45;4</title>
<path fill="none" stroke="black" d="M159.53,-72.41C165.27,-61.25 172.8,-46.6 178.53,-35.47"/>
</g>
</g>
</svg>
