<?xml version="1.0" encoding="UTF-8" standalone="no"?>
<!DOCTYPE svg PUBLIC "-//W3C//DTD SVG 1.1//EN"
 "http://www.w3.org/Graphics/SVG/1.1/DTD/svg11.dtd">
<!-- Generated by graphviz version 12.1.0 (20240811.2233)
 -->
<!-- Pages: 1 -->
<svg width="584pt" height="534pt"
 viewBox="0.00 0.00 583.86 534.00" xmlns="http://www.w3.org/2000/svg" xmlns:xlink="http://www.w3.org/1999/xlink">
<g id="graph0" class="graph" transform="scale(1 1) rotate(0) translate(4 530)">
<polygon fill="white" stroke="none" points="-4,4 -4,-530 579.86,-530 579.86,4 -4,4"/>
<g id="clust1" class="cluster">
<title>cluster_global</title>
<polygon fill="none" stroke="black" points="422.54,-105 422.54,-208 567.86,-208 567.86,-105 422.54,-105"/>
<text text-anchor="middle" x="495.2" y="-190.7" font-family="Times,serif" font-size="14.00">Global</text>
</g>
<g id="clust2" class="cluster">
<title>cluster_frame1</title>
<polygon fill="none" stroke="black" points="254.14,-227 254.14,-398 397.77,-398 397.77,-227 254.14,-227"/>
<text text-anchor="middle" x="325.95" y="-380.7" font-family="Times,serif" font-size="14.00">Frame 1</text>
</g>
<g id="clust3" class="cluster">
<title>cluster_frame2</title>
<polygon fill="none" stroke="black" points="90.19,-379 90.19,-482 221.18,-482 221.18,-379 90.19,-379"/>
<text text-anchor="middle" x="155.68" y="-464.7" font-family="Times,serif" font-size="14.00">Frame 2</text>
</g>
<g id="clust4" class="cluster">
<title>cluster_frame3</title>
<polygon fill="none" stroke="black" points="88.65,-268 88.65,-371 222.71,-371 222.71,-268 88.65,-268"/>
<text text-anchor="middle" x="155.68" y="-353.7" font-family="Times,serif" font-size="14.00">Frame 3</text>
</g>
<g id="clust5" class="cluster">
<title>cluster_frame4</title>
<polygon fill="none" stroke="black" points="82,-157 82,-260 229.36,-260 229.36,-157 82,-157"/>
<text text-anchor="middle" x="155.68" y="-242.7" font-family="Times,serif" font-size="14.00">Frame 4</text>
</g>
<g id="clust6" class="cluster">
<title>cluster_frame5</title>
<polygon fill="none" stroke="black" points="88.65,-46 88.65,-149 222.71,-149 222.71,-46 88.65,-46"/>
<text text-anchor="middle" x="155.68" y="-131.7" font-family="Times,serif" font-size="14.00">Frame 5</text>
</g>
<g id="clust7" class="cluster">
<title>cluster_frame6</title>
<polygon fill="none" stroke="black" points="249.36,-37 249.36,-208 402.54,-208 402.54,-37 249.36,-37"/>
<text text-anchor="middle" x="325.95" y="-190.7" font-family="Times,serif" font-size="14.00">Frame 6</text>
</g>
<!-- global_handle -->
<g id="node1" class="node">
<title>global_handle</title>
<ellipse fill="black" stroke="black" cx="495.2" cy="-117" rx="3.6" ry="3.6"/>
</g>
<!-- make_account -->
<g id="node2" class="node">
<title>make_account</title>
<ellipse fill="none" stroke="black" cx="495.2" cy="-157" rx="64.66" ry="18"/>
<text text-anchor="middle" x="495.2" y="-151.95" font-family="Times,serif" font-size="14.00">make_account</text>
</g>
<!-- frame1_handle -->
<g id="node3" class="node">
<title>frame1_handle</title>
<ellipse fill="black" stroke="black" cx="325.95" cy="-239" rx="3.6" ry="3.6"/>
</g>
<!-- frame1_handle&#45;&gt;global_handle -->
<g id="edge1" class="edge">
<title>frame1_handle&#45;&gt;global_handle</title>
<path fill="none" stroke="black" d="M329.8,-238.9C340.95,-238.35 382.02,-234.77 402.54,-212 427.66,-184.13 395.24,-155.72 422.54,-130 438.06,-115.38 464.22,-114.38 480.28,-115.4"/>
<polygon fill="black" stroke="black" points="479.45,-118.83 489.75,-116.37 480.16,-111.87 479.45,-118.83"/>
</g>
<!-- frame1_values -->
<g id="node4" class="node">
<title>frame1_values</title>
<ellipse fill="none" stroke="black" cx="325.95" cy="-313" rx="63.82" ry="52.33"/>
<text text-anchor="middle" x="325.95" y="-332.7" font-family="Times,serif" font-size="14.00">balance = 50 </text>
<text text-anchor="middle" x="325.95" y="-316.2" font-family="Times,serif" font-size="14.00"> withdraw ... </text>
<text text-anchor="middle" x="325.95" y="-299.7" font-family="Times,serif" font-size="14.00"> deposit ... </text>
<text text-anchor="middle" x="325.95" y="-283.2" font-family="Times,serif" font-size="14.00"> dispatch ...</text>
</g>
<!-- E1 -->
<g id="node5" class="node">
<title>E1</title>
<ellipse fill="none" stroke="white" cx="155.68" cy="-508" rx="27" ry="18"/>
<text text-anchor="middle" x="155.68" y="-502.95" font-family="Times,serif" font-size="14.00">E1</text>
</g>
<!-- E1&#45;&gt;frame1_handle -->
<g id="edge2" class="edge">
<title>E1&#45;&gt;frame1_handle</title>
<path fill="none" stroke="black" d="M182.89,-507.12C198.85,-505.11 218.24,-499.72 229.36,-486 262.22,-445.45 214.06,-290.44 249.36,-252 264.84,-235.14 293.61,-235.06 310.85,-236.83"/>
<polygon fill="black" stroke="black" points="310.17,-240.27 320.57,-238.21 311.16,-233.34 310.17,-240.27"/>
</g>
<!-- frame2_handle -->
<g id="node6" class="node">
<title>frame2_handle</title>
<ellipse fill="black" stroke="black" cx="155.68" cy="-391" rx="3.6" ry="3.6"/>
</g>
<!-- frame2_handle&#45;&gt;frame1_handle -->
<g id="edge3" class="edge">
<title>frame2_handle&#45;&gt;frame1_handle</title>
<path fill="none" stroke="black" d="M159.73,-391.4C170.91,-392.68 210.01,-395.46 229.36,-375 267.43,-334.77 210.38,-291.34 249.36,-252 265.39,-235.82 293.74,-235.46 310.79,-237"/>
<polygon fill="black" stroke="black" points="310.25,-240.46 320.61,-238.27 311.14,-233.52 310.25,-240.46"/>
</g>
<!-- frame2_values -->
<g id="node7" class="node">
<title>frame2_values</title>
<ellipse fill="none" stroke="black" cx="155.68" cy="-431" rx="57.49" ry="18"/>
<text text-anchor="middle" x="155.68" y="-425.95" font-family="Times,serif" font-size="14.00">m = &#39;deposit</text>
</g>
<!-- E2 -->
<g id="node8" class="node">
<title>E2</title>
<ellipse fill="none" stroke="white" cx="27" cy="-391" rx="27" ry="18"/>
<text text-anchor="middle" x="27" y="-385.95" font-family="Times,serif" font-size="14.00">E2</text>
</g>
<!-- E2&#45;&gt;frame2_handle -->
<g id="edge4" class="edge">
<title>E2&#45;&gt;frame2_handle</title>
<path fill="none" stroke="black" d="M54.25,-391C80.5,-391 119.88,-391 140.67,-391"/>
<polygon fill="black" stroke="black" points="140.37,-394.5 150.37,-391 140.37,-387.5 140.37,-394.5"/>
</g>
<!-- frame3_handle -->
<g id="node9" class="node">
<title>frame3_handle</title>
<ellipse fill="black" stroke="black" cx="155.68" cy="-280" rx="3.6" ry="3.6"/>
</g>
<!-- frame3_handle&#45;&gt;frame1_handle -->
<g id="edge5" class="edge">
<title>frame3_handle&#45;&gt;frame1_handle</title>
<path fill="none" stroke="black" d="M159.55,-279.71C169.52,-278.61 203.43,-274.31 229.36,-264 239,-260.17 239.65,-255.61 249.36,-252 269.8,-244.42 295.01,-241.22 310.53,-239.89"/>
<polygon fill="black" stroke="black" points="310.72,-243.39 320.46,-239.22 310.25,-236.4 310.72,-243.39"/>
</g>
<!-- frame3_values -->
<g id="node10" class="node">
<title>frame3_values</title>
<ellipse fill="none" stroke="black" cx="155.68" cy="-320" rx="59.03" ry="18"/>
<text text-anchor="middle" x="155.68" y="-314.95" font-family="Times,serif" font-size="14.00">amount = 40</text>
</g>
<!-- E3 -->
<g id="node11" class="node">
<title>E3</title>
<ellipse fill="none" stroke="white" cx="27" cy="-280" rx="27" ry="18"/>
<text text-anchor="middle" x="27" y="-274.95" font-family="Times,serif" font-size="14.00">E3</text>
</g>
<!-- E3&#45;&gt;frame3_handle -->
<g id="edge6" class="edge">
<title>E3&#45;&gt;frame3_handle</title>
<path fill="none" stroke="black" d="M54.25,-280C80.5,-280 119.88,-280 140.67,-280"/>
<polygon fill="black" stroke="black" points="140.37,-283.5 150.37,-280 140.37,-276.5 140.37,-283.5"/>
</g>
<!-- frame4_handle -->
<g id="node12" class="node">
<title>frame4_handle</title>
<ellipse fill="black" stroke="black" cx="155.68" cy="-169" rx="3.6" ry="3.6"/>
</g>
<!-- frame4_handle&#45;&gt;frame1_handle -->
<g id="edge7" class="edge">
<title>frame4_handle&#45;&gt;frame1_handle</title>
<path fill="none" stroke="black" d="M159.75,-168.74C170.38,-168 206.2,-166.83 229.36,-182 242.77,-190.78 236.73,-202.14 249.36,-212 267.88,-226.46 294.8,-233.58 311.02,-236.76"/>
<polygon fill="black" stroke="black" points="310.1,-240.16 320.54,-238.38 311.27,-233.26 310.1,-240.16"/>
</g>
<!-- frame4_values -->
<g id="node13" class="node">
<title>frame4_values</title>
<ellipse fill="none" stroke="black" cx="155.68" cy="-209" rx="65.68" ry="18"/>
<text text-anchor="middle" x="155.68" y="-203.95" font-family="Times,serif" font-size="14.00">m = &#39;withdraw</text>
</g>
<!-- E4 -->
<g id="node14" class="node">
<title>E4</title>
<ellipse fill="none" stroke="white" cx="27" cy="-169" rx="27" ry="18"/>
<text text-anchor="middle" x="27" y="-163.95" font-family="Times,serif" font-size="14.00">E4</text>
</g>
<!-- E4&#45;&gt;frame4_handle -->
<g id="edge8" class="edge">
<title>E4&#45;&gt;frame4_handle</title>
<path fill="none" stroke="black" d="M54.25,-169C80.5,-169 119.88,-169 140.67,-169"/>
<polygon fill="black" stroke="black" points="140.37,-172.5 150.37,-169 140.37,-165.5 140.37,-172.5"/>
</g>
<!-- frame5_handle -->
<g id="node15" class="node">
<title>frame5_handle</title>
<ellipse fill="black" stroke="black" cx="155.68" cy="-58" rx="3.6" ry="3.6"/>
</g>
<!-- frame5_handle&#45;&gt;frame1_handle -->
<g id="edge9" class="edge">
<title>frame5_handle&#45;&gt;frame1_handle</title>
<path fill="none" stroke="black" d="M159.73,-57.44C170.9,-55.6 209.96,-50.89 229.36,-71 273.3,-116.56 209.35,-162.96 249.36,-212 264.5,-230.56 293.39,-236.37 310.74,-238.18"/>
<polygon fill="black" stroke="black" points="310.31,-241.66 320.53,-238.85 310.79,-234.68 310.31,-241.66"/>
</g>
<!-- frame5_values -->
<g id="node16" class="node">
<title>frame5_values</title>
<ellipse fill="none" stroke="black" cx="155.68" cy="-98" rx="59.03" ry="18"/>
<text text-anchor="middle" x="155.68" y="-92.95" font-family="Times,serif" font-size="14.00">amount = 60</text>
</g>
<!-- E5 -->
<g id="node17" class="node">
<title>E5</title>
<ellipse fill="none" stroke="white" cx="27" cy="-58" rx="27" ry="18"/>
<text text-anchor="middle" x="27" y="-52.95" font-family="Times,serif" font-size="14.00">E5</text>
</g>
<!-- E5&#45;&gt;frame5_handle -->
<g id="edge10" class="edge">
<title>E5&#45;&gt;frame5_handle</title>
<path fill="none" stroke="black" d="M54.25,-58C80.5,-58 119.88,-58 140.67,-58"/>
<polygon fill="black" stroke="black" points="140.37,-61.5 150.37,-58 140.37,-54.5 140.37,-61.5"/>
</g>
<!-- frame6_handle -->
<g id="node18" class="node">
<title>frame6_handle</title>
<ellipse fill="black" stroke="black" cx="325.95" cy="-49" rx="3.6" ry="3.6"/>
</g>
<!-- frame6_handle&#45;&gt;global_handle -->
<g id="edge11" class="edge">
<title>frame6_handle&#45;&gt;global_handle</title>
<path fill="none" stroke="black" d="M329.94,-49.12C340.3,-49.62 375.58,-51.99 402.54,-62 433.92,-73.65 466.59,-96.19 483.15,-108.49"/>
<polygon fill="black" stroke="black" points="480.55,-110.91 490.62,-114.19 484.79,-105.34 480.55,-110.91"/>
</g>
<!-- frame6_values -->
<g id="node19" class="node">
<title>frame6_values</title>
<ellipse fill="none" stroke="black" cx="325.95" cy="-123" rx="68.59" ry="52.33"/>
<text text-anchor="middle" x="325.95" y="-142.7" font-family="Times,serif" font-size="14.00">balance = 100 </text>
<text text-anchor="middle" x="325.95" y="-126.2" font-family="Times,serif" font-size="14.00"> withdraw ... </text>
<text text-anchor="middle" x="325.95" y="-109.7" font-family="Times,serif" font-size="14.00"> deposit ... </text>
<text text-anchor="middle" x="325.95" y="-93.2" font-family="Times,serif" font-size="14.00"> dispatch ...</text>
</g>
<!-- E6 -->
<g id="node20" class="node">
<title>E6</title>
<ellipse fill="none" stroke="white" cx="155.68" cy="-18" rx="27" ry="18"/>
<text text-anchor="middle" x="155.68" y="-12.95" font-family="Times,serif" font-size="14.00">E6</text>
</g>
<!-- E6&#45;&gt;frame6_handle -->
<g id="edge12" class="edge">
<title>E6&#45;&gt;frame6_handle</title>
<path fill="none" stroke="black" d="M182.24,-22.71C218.25,-29.34 282.7,-41.22 310.99,-46.43"/>
<polygon fill="black" stroke="black" points="310.19,-49.84 320.66,-48.21 311.46,-42.95 310.19,-49.84"/>
</g>
</g>
</svg>
