<?xml version="1.0" encoding="UTF-8" standalone="no"?>
<!DOCTYPE svg PUBLIC "-//W3C//DTD SVG 1.1//EN"
 "http://www.w3.org/Graphics/SVG/1.1/DTD/svg11.dtd">
<!-- Generated by graphviz version 12.1.0 (20240811.2233)
 -->
<!-- Pages: 1 -->
<svg width="716pt" height="1006pt"
 viewBox="0.00 0.00 716.10 1006.00" xmlns="http://www.w3.org/2000/svg" xmlns:xlink="http://www.w3.org/1999/xlink">
<g id="graph0" class="graph" transform="scale(1 1) rotate(0) translate(4 1002)">
<polygon fill="white" stroke="none" points="-4,4 -4,-1002 712.1,-1002 712.1,4 -4,4"/>
<g id="clust1" class="cluster">
<title>cluster_global</title>
<polygon fill="none" stroke="black" points="268.81,-366 268.81,-468 368.07,-468 368.07,-366 268.81,-366"/>
<text text-anchor="middle" x="318.44" y="-450.7" font-family="Times,serif" font-size="14.00">Global</text>
</g>
<g id="clust2" class="cluster">
<title>cluster_frame1</title>
<polygon fill="none" stroke="black" points="82,-833 82,-990 248.81,-990 248.81,-833 82,-833"/>
<text text-anchor="middle" x="165.41" y="-972.7" font-family="Times,serif" font-size="14.00">Frame 1</text>
</g>
<g id="clust3" class="cluster">
<title>cluster_frame2</title>
<polygon fill="none" stroke="black" points="82,-668 82,-825 248.81,-825 248.81,-668 82,-668"/>
<text text-anchor="middle" x="165.41" y="-807.7" font-family="Times,serif" font-size="14.00">Frame 2</text>
</g>
<g id="clust4" class="cluster">
<title>cluster_frame3</title>
<polygon fill="none" stroke="black" points="82,-503 82,-660 248.81,-660 248.81,-503 82,-503"/>
<text text-anchor="middle" x="165.41" y="-642.7" font-family="Times,serif" font-size="14.00">Frame 3</text>
</g>
<g id="clust5" class="cluster">
<title>cluster_frame4</title>
<polygon fill="none" stroke="black" points="82,-338 82,-495 248.81,-495 248.81,-338 82,-338"/>
<text text-anchor="middle" x="165.41" y="-477.7" font-family="Times,serif" font-size="14.00">Frame 4</text>
</g>
<g id="clust6" class="cluster">
<title>cluster_frame5</title>
<polygon fill="none" stroke="black" points="82,-173 82,-330 248.81,-330 248.81,-173 82,-173"/>
<text text-anchor="middle" x="165.41" y="-312.7" font-family="Times,serif" font-size="14.00">Frame 5</text>
</g>
<g id="clust7" class="cluster">
<title>cluster_frame6</title>
<polygon fill="none" stroke="black" points="126.53,-8 126.53,-165 204.29,-165 204.29,-8 126.53,-8"/>
<text text-anchor="middle" x="165.41" y="-147.7" font-family="Times,serif" font-size="14.00">Frame 6</text>
</g>
<!-- global_handle -->
<g id="node1" class="node">
<title>global_handle</title>
<ellipse fill="black" stroke="black" cx="318.44" cy="-432" rx="3.6" ry="3.6"/>
</g>
<!-- factorial -->
<g id="node2" class="node">
<title>factorial</title>
<ellipse fill="none" stroke="black" cx="318.44" cy="-392" rx="41.63" ry="18"/>
<text text-anchor="middle" x="318.44" y="-386.95" font-family="Times,serif" font-size="14.00">factorial</text>
</g>
<!-- fact_pair -->
<g id="node3" class="node">
<title>fact_pair</title>
<polygon fill="none" stroke="black" points="396.07,-381.5 396.07,-430.5 450.07,-430.5 450.07,-381.5 396.07,-381.5"/>
<text text-anchor="middle" x="423.07" y="-413.2" font-family="Times,serif" font-size="14.00">Env</text>
<polyline fill="none" stroke="black" points="396.07,-406 450.07,-406"/>
<text text-anchor="middle" x="423.07" y="-388.7" font-family="Times,serif" font-size="14.00">Body</text>
</g>
<!-- factorial&#45;&gt;fact_pair -->
<g id="edge1" class="edge">
<title>factorial&#45;&gt;fact_pair</title>
<path fill="none" stroke="black" d="M358.53,-397.33C367.1,-398.5 376.15,-399.74 384.65,-400.9"/>
<polygon fill="black" stroke="black" points="383.92,-404.33 394.3,-402.21 384.87,-397.39 383.92,-404.33"/>
</g>
<!-- fact_pair&#45;&gt;global_handle -->
<g id="edge2" class="edge">
<title>fact_pair:env&#45;&gt;global_handle</title>
<path fill="none" stroke="black" d="M396.07,-418.25C373.72,-418.25 348.26,-423.99 333.05,-428.05"/>
<polygon fill="black" stroke="black" points="332.45,-424.58 323.79,-430.68 334.36,-431.32 332.45,-424.58"/>
</g>
<!-- fact_body -->
<g id="node4" class="node">
<title>fact_body</title>
<ellipse fill="none" stroke="black" cx="597.08" cy="-394" rx="111.02" ry="40.66"/>
<text text-anchor="start" x="526.58" y="-405.45" font-family="Times,serif" font-size="14.00">(if (= n 1))</text>
<text text-anchor="start" x="526.58" y="-388.95" font-family="Times,serif" font-size="14.00"> &#160;&#160;&#160;1</text>
<text text-anchor="middle" x="597.08" y="-372.45" font-family="Times,serif" font-size="14.00"> &#160;&#160;&#160;&#160;(* n (factorial (&#45; n 1)))</text>
</g>
<!-- fact_pair&#45;&gt;fact_body -->
<g id="edge3" class="edge">
<title>fact_pair:body&#45;&gt;fact_body</title>
<path fill="none" stroke="black" d="M450.07,-393.75C458,-393.75 466.17,-393.75 474.41,-393.76"/>
<polygon fill="black" stroke="black" points="474.14,-397.26 484.15,-393.77 474.15,-390.26 474.14,-397.26"/>
</g>
<!-- frame1_handle -->
<g id="node5" class="node">
<title>frame1_handle</title>
<ellipse fill="black" stroke="black" cx="165.41" cy="-845" rx="3.6" ry="3.6"/>
</g>
<!-- frame1_handle&#45;&gt;global_handle -->
<g id="edge4" class="edge">
<title>frame1_handle&#45;&gt;global_handle</title>
<path fill="none" stroke="black" d="M169.18,-845.45C180.83,-847.17 226.17,-852.11 248.81,-829 303.42,-773.26 314.97,-513.1 317.04,-447.2"/>
<polygon fill="black" stroke="black" points="320.53,-447.36 317.32,-437.27 313.54,-447.17 320.53,-447.36"/>
</g>
<!-- fact_n_6 -->
<g id="node6" class="node">
<title>fact_n_6</title>
<ellipse fill="none" stroke="black" cx="165.41" cy="-885" rx="30.88" ry="18"/>
<text text-anchor="middle" x="165.41" y="-879.95" font-family="Times,serif" font-size="14.00">n = 6</text>
</g>
<!-- step1 -->
<g id="node7" class="node">
<title>step1</title>
<ellipse fill="none" stroke="white" cx="165.41" cy="-939" rx="75.41" ry="18"/>
<text text-anchor="middle" x="165.41" y="-933.95" font-family="Times,serif" font-size="14.00">(* 6 (factorial 5))</text>
</g>
<!-- E1 -->
<g id="node8" class="node">
<title>E1</title>
<ellipse fill="none" stroke="white" cx="27" cy="-845" rx="27" ry="18"/>
<text text-anchor="middle" x="27" y="-839.95" font-family="Times,serif" font-size="14.00">E1</text>
</g>
<!-- E1&#45;&gt;frame1_handle -->
<g id="edge5" class="edge">
<title>E1&#45;&gt;frame1_handle</title>
<path fill="none" stroke="black" d="M54.3,-845C83.01,-845 127.88,-845 150.45,-845"/>
<polygon fill="black" stroke="black" points="150.15,-848.5 160.15,-845 150.15,-841.5 150.15,-848.5"/>
</g>
<!-- frame2_handle -->
<g id="node9" class="node">
<title>frame2_handle</title>
<ellipse fill="black" stroke="black" cx="165.41" cy="-680" rx="3.6" ry="3.6"/>
</g>
<!-- frame2_handle&#45;&gt;global_handle -->
<g id="edge6" class="edge">
<title>frame2_handle&#45;&gt;global_handle</title>
<path fill="none" stroke="black" d="M169.43,-680.42C181.28,-681.88 225.08,-685.56 248.81,-664 313.33,-605.38 318.34,-489.34 317.93,-447.5"/>
<polygon fill="black" stroke="black" points="321.43,-447.43 317.68,-437.52 314.43,-447.6 321.43,-447.43"/>
</g>
<!-- fact_n_5 -->
<g id="node10" class="node">
<title>fact_n_5</title>
<ellipse fill="none" stroke="black" cx="165.41" cy="-720" rx="30.88" ry="18"/>
<text text-anchor="middle" x="165.41" y="-714.95" font-family="Times,serif" font-size="14.00">n = 5</text>
</g>
<!-- step2 -->
<g id="node11" class="node">
<title>step2</title>
<ellipse fill="none" stroke="white" cx="165.41" cy="-774" rx="75.41" ry="18"/>
<text text-anchor="middle" x="165.41" y="-768.95" font-family="Times,serif" font-size="14.00">(* 5 (factorial 4))</text>
</g>
<!-- E2 -->
<g id="node12" class="node">
<title>E2</title>
<ellipse fill="none" stroke="white" cx="27" cy="-680" rx="27" ry="18"/>
<text text-anchor="middle" x="27" y="-674.95" font-family="Times,serif" font-size="14.00">E2</text>
</g>
<!-- E2&#45;&gt;frame2_handle -->
<g id="edge7" class="edge">
<title>E2&#45;&gt;frame2_handle</title>
<path fill="none" stroke="black" d="M54.3,-680C83.01,-680 127.88,-680 150.45,-680"/>
<polygon fill="black" stroke="black" points="150.15,-683.5 160.15,-680 150.15,-676.5 150.15,-683.5"/>
</g>
<!-- frame3_handle -->
<g id="node13" class="node">
<title>frame3_handle</title>
<ellipse fill="black" stroke="black" cx="165.41" cy="-515" rx="3.6" ry="3.6"/>
</g>
<!-- frame3_handle&#45;&gt;global_handle -->
<g id="edge8" class="edge">
<title>frame3_handle&#45;&gt;global_handle</title>
<path fill="none" stroke="black" d="M169.45,-515.02C180.7,-514.98 220.67,-513.74 248.81,-499 274.67,-485.45 297.3,-459.04 308.99,-443.73"/>
<polygon fill="black" stroke="black" points="311.7,-445.95 314.78,-435.82 306.05,-441.82 311.7,-445.95"/>
</g>
<!-- fact_n_4 -->
<g id="node14" class="node">
<title>fact_n_4</title>
<ellipse fill="none" stroke="black" cx="165.41" cy="-555" rx="30.88" ry="18"/>
<text text-anchor="middle" x="165.41" y="-549.95" font-family="Times,serif" font-size="14.00">n = 4</text>
</g>
<!-- step3 -->
<g id="node15" class="node">
<title>step3</title>
<ellipse fill="none" stroke="white" cx="165.41" cy="-609" rx="75.41" ry="18"/>
<text text-anchor="middle" x="165.41" y="-603.95" font-family="Times,serif" font-size="14.00">(* 4 (factorial 3))</text>
</g>
<!-- E3 -->
<g id="node16" class="node">
<title>E3</title>
<ellipse fill="none" stroke="white" cx="27" cy="-515" rx="27" ry="18"/>
<text text-anchor="middle" x="27" y="-509.95" font-family="Times,serif" font-size="14.00">E3</text>
</g>
<!-- E3&#45;&gt;frame3_handle -->
<g id="edge9" class="edge">
<title>E3&#45;&gt;frame3_handle</title>
<path fill="none" stroke="black" d="M54.3,-515C83.01,-515 127.88,-515 150.45,-515"/>
<polygon fill="black" stroke="black" points="150.15,-518.5 160.15,-515 150.15,-511.5 150.15,-518.5"/>
</g>
<!-- frame4_handle -->
<g id="node17" class="node">
<title>frame4_handle</title>
<ellipse fill="black" stroke="black" cx="165.41" cy="-350" rx="3.6" ry="3.6"/>
</g>
<!-- frame4_handle&#45;&gt;global_handle -->
<g id="edge10" class="edge">
<title>frame4_handle&#45;&gt;global_handle</title>
<path fill="none" stroke="black" d="M169.38,-349.49C181.05,-347.68 224.28,-342.67 248.81,-363 269.16,-379.87 249.38,-401.09 268.81,-419 278.11,-427.56 292.42,-430.6 303.11,-431.62"/>
<polygon fill="black" stroke="black" points="302.71,-435.11 312.85,-432.04 303.01,-428.11 302.71,-435.11"/>
</g>
<!-- fact_n_3 -->
<g id="node18" class="node">
<title>fact_n_3</title>
<ellipse fill="none" stroke="black" cx="165.41" cy="-390" rx="30.88" ry="18"/>
<text text-anchor="middle" x="165.41" y="-384.95" font-family="Times,serif" font-size="14.00">n = 3</text>
</g>
<!-- step4 -->
<g id="node19" class="node">
<title>step4</title>
<ellipse fill="none" stroke="white" cx="165.41" cy="-444" rx="75.41" ry="18"/>
<text text-anchor="middle" x="165.41" y="-438.95" font-family="Times,serif" font-size="14.00">(* 3 (factorial 2))</text>
</g>
<!-- E4 -->
<g id="node20" class="node">
<title>E4</title>
<ellipse fill="none" stroke="white" cx="27" cy="-350" rx="27" ry="18"/>
<text text-anchor="middle" x="27" y="-344.95" font-family="Times,serif" font-size="14.00">E4</text>
</g>
<!-- E4&#45;&gt;frame4_handle -->
<g id="edge11" class="edge">
<title>E4&#45;&gt;frame4_handle</title>
<path fill="none" stroke="black" d="M54.3,-350C83.01,-350 127.88,-350 150.45,-350"/>
<polygon fill="black" stroke="black" points="150.15,-353.5 160.15,-350 150.15,-346.5 150.15,-353.5"/>
</g>
<!-- frame5_handle -->
<g id="node21" class="node">
<title>frame5_handle</title>
<ellipse fill="black" stroke="black" cx="165.41" cy="-185" rx="3.6" ry="3.6"/>
</g>
<!-- frame5_handle&#45;&gt;global_handle -->
<g id="edge12" class="edge">
<title>frame5_handle&#45;&gt;global_handle</title>
<path fill="none" stroke="black" d="M169.22,-184.38C181.01,-181.99 226.84,-174.52 248.81,-198 282.51,-234 237.05,-381.28 268.81,-419 277.2,-428.96 292.31,-431.73 303.47,-432.31"/>
<polygon fill="black" stroke="black" points="303.19,-435.81 313.17,-432.25 303.15,-428.81 303.19,-435.81"/>
</g>
<!-- fact_n_2 -->
<g id="node22" class="node">
<title>fact_n_2</title>
<ellipse fill="none" stroke="black" cx="165.41" cy="-225" rx="30.88" ry="18"/>
<text text-anchor="middle" x="165.41" y="-219.95" font-family="Times,serif" font-size="14.00">n = 2</text>
</g>
<!-- step5 -->
<g id="node23" class="node">
<title>step5</title>
<ellipse fill="none" stroke="white" cx="165.41" cy="-279" rx="75.41" ry="18"/>
<text text-anchor="middle" x="165.41" y="-273.95" font-family="Times,serif" font-size="14.00">(* 2 (factorial 1))</text>
</g>
<!-- E5 -->
<g id="node24" class="node">
<title>E5</title>
<ellipse fill="none" stroke="white" cx="27" cy="-185" rx="27" ry="18"/>
<text text-anchor="middle" x="27" y="-179.95" font-family="Times,serif" font-size="14.00">E5</text>
</g>
<!-- E5&#45;&gt;frame5_handle -->
<g id="edge13" class="edge">
<title>E5&#45;&gt;frame5_handle</title>
<path fill="none" stroke="black" d="M54.3,-185C83.01,-185 127.88,-185 150.45,-185"/>
<polygon fill="black" stroke="black" points="150.15,-188.5 160.15,-185 150.15,-181.5 150.15,-188.5"/>
</g>
<!-- frame6_handle -->
<g id="node25" class="node">
<title>frame6_handle</title>
<ellipse fill="black" stroke="black" cx="165.41" cy="-20" rx="3.6" ry="3.6"/>
</g>
<!-- frame6_handle&#45;&gt;global_handle -->
<g id="edge14" class="edge">
<title>frame6_handle&#45;&gt;global_handle</title>
<path fill="none" stroke="black" d="M169.24,-19.36C181.13,-16.88 227.3,-9.11 248.81,-33 306.29,-96.83 214.76,-352.25 268.81,-419 277.01,-429.12 292.15,-431.87 303.36,-432.39"/>
<polygon fill="black" stroke="black" points="303.19,-435.89 313.14,-432.27 303.1,-428.89 303.19,-435.89"/>
</g>
<!-- fact_n_1 -->
<g id="node26" class="node">
<title>fact_n_1</title>
<ellipse fill="none" stroke="black" cx="165.41" cy="-60" rx="30.88" ry="18"/>
<text text-anchor="middle" x="165.41" y="-54.95" font-family="Times,serif" font-size="14.00">n = 1</text>
</g>
<!-- step6 -->
<g id="node27" class="node">
<title>step6</title>
<ellipse fill="none" stroke="white" cx="165.41" cy="-114" rx="27" ry="18"/>
<text text-anchor="middle" x="165.41" y="-108.95" font-family="Times,serif" font-size="14.00">1</text>
</g>
<!-- E6 -->
<g id="node28" class="node">
<title>E6</title>
<ellipse fill="none" stroke="white" cx="27" cy="-20" rx="27" ry="18"/>
<text text-anchor="middle" x="27" y="-14.95" font-family="Times,serif" font-size="14.00">E6</text>
</g>
<!-- E6&#45;&gt;frame6_handle -->
<g id="edge15" class="edge">
<title>E6&#45;&gt;frame6_handle</title>
<path fill="none" stroke="black" d="M54.3,-20C83.01,-20 127.88,-20 150.45,-20"/>
<polygon fill="black" stroke="black" points="150.15,-23.5 160.15,-20 150.15,-16.5 150.15,-23.5"/>
</g>
</g>
</svg>
