<?xml version="1.0" encoding="UTF-8" standalone="no"?>
<!DOCTYPE svg PUBLIC "-//W3C//DTD SVG 1.1//EN"
 "http://www.w3.org/Graphics/SVG/1.1/DTD/svg11.dtd">
<!-- Generated by graphviz version 12.1.0 (20240811.2233)
 -->
<!-- Pages: 1 -->
<svg width="775pt" height="1486pt"
 viewBox="0.00 0.00 775.38 1486.00" xmlns="http://www.w3.org/2000/svg" xmlns:xlink="http://www.w3.org/1999/xlink">
<g id="graph0" class="graph" transform="scale(1 1) rotate(0) translate(4 1482)">
<polygon fill="white" stroke="none" points="-4,4 -4,-1482 771.38,-1482 771.38,4 -4,4"/>
<g id="clust1" class="cluster">
<title>cluster_global</title>
<polygon fill="none" stroke="black" points="271.88,-584 271.88,-741 371.14,-741 371.14,-584 271.88,-584"/>
<text text-anchor="middle" x="321.51" y="-723.7" font-family="Times,serif" font-size="14.00">Global</text>
</g>
<g id="clust2" class="cluster">
<title>cluster_frame1</title>
<polygon fill="none" stroke="black" points="87.7,-1268 87.7,-1470 246.18,-1470 246.18,-1268 87.7,-1268"/>
<text text-anchor="middle" x="166.94" y="-1452.7" font-family="Times,serif" font-size="14.00">Frame 1</text>
</g>
<g id="clust3" class="cluster">
<title>cluster_frame2</title>
<polygon fill="none" stroke="black" points="87.7,-1058 87.7,-1260 246.18,-1260 246.18,-1058 87.7,-1058"/>
<text text-anchor="middle" x="166.94" y="-1242.7" font-family="Times,serif" font-size="14.00">Frame 2</text>
</g>
<g id="clust4" class="cluster">
<title>cluster_frame3</title>
<polygon fill="none" stroke="black" points="87.7,-848 87.7,-1050 246.18,-1050 246.18,-848 87.7,-848"/>
<text text-anchor="middle" x="166.94" y="-1032.7" font-family="Times,serif" font-size="14.00">Frame 3</text>
</g>
<g id="clust5" class="cluster">
<title>cluster_frame4</title>
<polygon fill="none" stroke="black" points="86.61,-638 86.61,-840 247.28,-840 247.28,-638 86.61,-638"/>
<text text-anchor="middle" x="166.94" y="-822.7" font-family="Times,serif" font-size="14.00">Frame 4</text>
</g>
<g id="clust6" class="cluster">
<title>cluster_frame5</title>
<polygon fill="none" stroke="black" points="82,-428 82,-630 251.88,-630 251.88,-428 82,-428"/>
<text text-anchor="middle" x="166.94" y="-612.7" font-family="Times,serif" font-size="14.00">Frame 5</text>
</g>
<g id="clust7" class="cluster">
<title>cluster_frame6</title>
<polygon fill="none" stroke="black" points="82,-218 82,-420 251.88,-420 251.88,-218 82,-218"/>
<text text-anchor="middle" x="166.94" y="-402.7" font-family="Times,serif" font-size="14.00">Frame 6</text>
</g>
<g id="clust8" class="cluster">
<title>cluster_frame7</title>
<polygon fill="none" stroke="black" points="87.7,-8 87.7,-210 246.18,-210 246.18,-8 87.7,-8"/>
<text text-anchor="middle" x="166.94" y="-192.7" font-family="Times,serif" font-size="14.00">Frame 7</text>
</g>
<!-- global_handle -->
<g id="node1" class="node">
<title>global_handle</title>
<ellipse fill="black" stroke="black" cx="321.51" cy="-650" rx="3.6" ry="3.6"/>
</g>
<!-- factorial -->
<g id="node2" class="node">
<title>factorial</title>
<ellipse fill="none" stroke="black" cx="321.51" cy="-690" rx="41.63" ry="18"/>
<text text-anchor="middle" x="321.51" y="-684.95" font-family="Times,serif" font-size="14.00">factorial</text>
</g>
<!-- fact_pair -->
<g id="node4" class="node">
<title>fact_pair</title>
<polygon fill="none" stroke="black" points="399.14,-665.5 399.14,-714.5 453.14,-714.5 453.14,-665.5 399.14,-665.5"/>
<text text-anchor="middle" x="426.14" y="-697.2" font-family="Times,serif" font-size="14.00">Env</text>
<polyline fill="none" stroke="black" points="399.14,-690 453.14,-690"/>
<text text-anchor="middle" x="426.14" y="-672.7" font-family="Times,serif" font-size="14.00">Body</text>
</g>
<!-- factorial&#45;&gt;fact_pair -->
<g id="edge1" class="edge">
<title>factorial&#45;&gt;fact_pair</title>
<path fill="none" stroke="black" d="M363.37,-690C371.31,-690 379.6,-690 387.44,-690"/>
<polygon fill="black" stroke="black" points="387.36,-693.5 397.36,-690 387.36,-686.5 387.36,-693.5"/>
</g>
<!-- fact_iter -->
<g id="node3" class="node">
<title>fact_iter</title>
<ellipse fill="none" stroke="black" cx="321.51" cy="-610" rx="41.63" ry="18"/>
<text text-anchor="middle" x="321.51" y="-604.95" font-family="Times,serif" font-size="14.00">fact_iter</text>
</g>
<!-- fact_iter_pair -->
<g id="node6" class="node">
<title>fact_iter_pair</title>
<polygon fill="none" stroke="black" points="399.14,-585.5 399.14,-634.5 453.14,-634.5 453.14,-585.5 399.14,-585.5"/>
<text text-anchor="middle" x="426.14" y="-617.2" font-family="Times,serif" font-size="14.00">Env</text>
<polyline fill="none" stroke="black" points="399.14,-610 453.14,-610"/>
<text text-anchor="middle" x="426.14" y="-592.7" font-family="Times,serif" font-size="14.00">Body</text>
</g>
<!-- fact_iter&#45;&gt;fact_iter_pair -->
<g id="edge4" class="edge">
<title>fact_iter&#45;&gt;fact_iter_pair</title>
<path fill="none" stroke="black" d="M363.37,-610C371.31,-610 379.6,-610 387.44,-610"/>
<polygon fill="black" stroke="black" points="387.36,-613.5 397.36,-610 387.36,-606.5 387.36,-613.5"/>
</g>
<!-- fact_pair&#45;&gt;global_handle -->
<g id="edge3" class="edge">
<title>fact_pair:env&#45;&gt;global_handle</title>
<path fill="none" stroke="black" d="M399.14,-702.25C377.71,-702.25 388.75,-675.21 371.14,-663 360.87,-655.88 346.9,-652.66 336.57,-651.2"/>
<polygon fill="black" stroke="black" points="337.22,-647.75 326.93,-650.26 336.54,-654.72 337.22,-647.75"/>
</g>
<!-- fact_body -->
<g id="node5" class="node">
<title>fact_body</title>
<ellipse fill="none" stroke="black" cx="628.26" cy="-700" rx="111.02" ry="40.66"/>
<text text-anchor="start" x="557.76" y="-711.45" font-family="Times,serif" font-size="14.00">(if (= n 1))</text>
<text text-anchor="start" x="557.76" y="-694.95" font-family="Times,serif" font-size="14.00"> &#160;&#160;&#160;&#160;1</text>
<text text-anchor="middle" x="628.26" y="-678.45" font-family="Times,serif" font-size="14.00"> &#160;&#160;&#160;&#160;(* n (factorial (&#45; n 1)))</text>
</g>
<!-- fact_pair&#45;&gt;fact_body -->
<g id="edge2" class="edge">
<title>fact_pair:body&#45;&gt;fact_body</title>
<path fill="none" stroke="black" d="M453.14,-677.75C473.45,-677.75 494.99,-679.26 515.74,-681.49"/>
<polygon fill="black" stroke="black" points="515.34,-684.97 525.67,-682.63 516.14,-678.01 515.34,-684.97"/>
</g>
<!-- fact_iter_pair&#45;&gt;global_handle -->
<g id="edge5" class="edge">
<title>fact_iter_pair:env&#45;&gt;global_handle</title>
<path fill="none" stroke="black" d="M399.14,-622.25C385.07,-622.25 384.24,-631.87 371.14,-637 359.77,-641.45 346.32,-644.92 336.45,-647.15"/>
<polygon fill="black" stroke="black" points="335.76,-643.71 326.69,-649.19 337.2,-650.56 335.76,-643.71"/>
</g>
<!-- fact_iter_body -->
<g id="node7" class="node">
<title>fact_iter_body</title>
<ellipse fill="none" stroke="black" cx="628.26" cy="-577" rx="139.12" ry="63.99"/>
<text text-anchor="start" x="537.89" y="-604.95" font-family="Times,serif" font-size="14.00">(if (&gt; counter max&#45;count)</text>
<text text-anchor="start" x="537.89" y="-588.45" font-family="Times,serif" font-size="14.00"> &#160;&#160;&#160;&#160;&#160;product</text>
<text text-anchor="start" x="537.89" y="-571.95" font-family="Times,serif" font-size="14.00"> &#160;&#160;&#160;&#160;&#160;(fact_iter (* counter product)</text>
<text text-anchor="start" x="537.89" y="-555.45" font-family="Times,serif" font-size="14.00"> &#160;&#160;&#160;&#160;&#160;&#160;&#160;&#160;&#160;&#160;&#160;&#160;&#160;&#160;&#160;&#160;&#160;&#160;&#160;&#160;(+ counter 1)</text>
<text text-anchor="middle" x="628.26" y="-538.95" font-family="Times,serif" font-size="14.00"> &#160;&#160;&#160;&#160;&#160;&#160;&#160;&#160;&#160;&#160;max&#45;count)))</text>
</g>
<!-- fact_iter_pair&#45;&gt;fact_iter_body -->
<g id="edge6" class="edge">
<title>fact_iter_pair:body&#45;&gt;fact_iter_body</title>
<path fill="none" stroke="black" d="M453.14,-597.75C463.2,-597.75 473.56,-597.4 483.99,-596.8"/>
<polygon fill="black" stroke="black" points="484.05,-600.31 493.8,-596.15 483.59,-593.32 484.05,-600.31"/>
</g>
<!-- frame1_handle -->
<g id="node8" class="node">
<title>frame1_handle</title>
<ellipse fill="black" stroke="black" cx="166.94" cy="-1280" rx="3.6" ry="3.6"/>
</g>
<!-- frame1_handle&#45;&gt;global_handle -->
<g id="edge7" class="edge">
<title>frame1_handle&#45;&gt;global_handle</title>
<path fill="none" stroke="black" d="M170.86,-1280.55C183.07,-1282.68 230.47,-1289.02 251.88,-1264 295.33,-1213.24 230.32,-715.31 271.88,-663 279.99,-652.8 295.14,-650.07 306.39,-649.57"/>
<polygon fill="black" stroke="black" points="306.15,-653.07 316.2,-649.71 306.25,-646.07 306.15,-653.07"/>
</g>
<!-- frame1_values -->
<g id="node9" class="node">
<title>frame1_values</title>
<ellipse fill="none" stroke="black" cx="166.94" cy="-1342" rx="71.24" ry="40.66"/>
<text text-anchor="middle" x="166.94" y="-1353.45" font-family="Times,serif" font-size="14.00">product = 1 </text>
<text text-anchor="middle" x="166.94" y="-1336.95" font-family="Times,serif" font-size="14.00"> counter = 1 </text>
<text text-anchor="middle" x="166.94" y="-1320.45" font-family="Times,serif" font-size="14.00"> max&#45;count = 6</text>
</g>
<!-- step1 -->
<g id="node10" class="node">
<title>step1</title>
<ellipse fill="none" stroke="white" cx="166.94" cy="-1419" rx="67.73" ry="18"/>
<text text-anchor="middle" x="166.94" y="-1413.95" font-family="Times,serif" font-size="14.00">(fact&#45;iter 1 2 6)</text>
</g>
<!-- E1 -->
<g id="node11" class="node">
<title>E1</title>
<ellipse fill="none" stroke="white" cx="27" cy="-1280" rx="27" ry="18"/>
<text text-anchor="middle" x="27" y="-1274.95" font-family="Times,serif" font-size="14.00">E1</text>
</g>
<!-- E1&#45;&gt;frame1_handle -->
<g id="edge8" class="edge">
<title>E1&#45;&gt;frame1_handle</title>
<path fill="none" stroke="black" d="M54.27,-1280C83.25,-1280 128.82,-1280 151.76,-1280"/>
<polygon fill="black" stroke="black" points="151.64,-1283.5 161.64,-1280 151.64,-1276.5 151.64,-1283.5"/>
</g>
<!-- frame2_handle -->
<g id="node12" class="node">
<title>frame2_handle</title>
<ellipse fill="black" stroke="black" cx="166.94" cy="-1070" rx="3.6" ry="3.6"/>
</g>
<!-- frame2_handle&#45;&gt;global_handle -->
<g id="edge9" class="edge">
<title>frame2_handle&#45;&gt;global_handle</title>
<path fill="none" stroke="black" d="M170.85,-1070.54C183.01,-1072.63 230.25,-1078.83 251.88,-1054 309.04,-988.41 217.15,-730.63 271.88,-663 280.08,-652.87 295.22,-650.13 306.43,-649.61"/>
<polygon fill="black" stroke="black" points="306.17,-653.11 316.21,-649.73 306.26,-646.11 306.17,-653.11"/>
</g>
<!-- frame2_values -->
<g id="node13" class="node">
<title>frame2_values</title>
<ellipse fill="none" stroke="black" cx="166.94" cy="-1132" rx="71.24" ry="40.66"/>
<text text-anchor="middle" x="166.94" y="-1143.45" font-family="Times,serif" font-size="14.00">product = 1 </text>
<text text-anchor="middle" x="166.94" y="-1126.95" font-family="Times,serif" font-size="14.00"> counter = 2 </text>
<text text-anchor="middle" x="166.94" y="-1110.45" font-family="Times,serif" font-size="14.00"> max&#45;count = 6</text>
</g>
<!-- step2 -->
<g id="node14" class="node">
<title>step2</title>
<ellipse fill="none" stroke="white" cx="166.94" cy="-1209" rx="67.73" ry="18"/>
<text text-anchor="middle" x="166.94" y="-1203.95" font-family="Times,serif" font-size="14.00">(fact&#45;iter 2 3 6)</text>
</g>
<!-- E2 -->
<g id="node15" class="node">
<title>E2</title>
<ellipse fill="none" stroke="white" cx="27" cy="-1070" rx="27" ry="18"/>
<text text-anchor="middle" x="27" y="-1064.95" font-family="Times,serif" font-size="14.00">E2</text>
</g>
<!-- E2&#45;&gt;frame2_handle -->
<g id="edge10" class="edge">
<title>E2&#45;&gt;frame2_handle</title>
<path fill="none" stroke="black" d="M54.27,-1070C83.25,-1070 128.82,-1070 151.76,-1070"/>
<polygon fill="black" stroke="black" points="151.64,-1073.5 161.64,-1070 151.64,-1066.5 151.64,-1073.5"/>
</g>
<!-- frame3_handle -->
<g id="node16" class="node">
<title>frame3_handle</title>
<ellipse fill="black" stroke="black" cx="166.94" cy="-860" rx="3.6" ry="3.6"/>
</g>
<!-- frame3_handle&#45;&gt;global_handle -->
<g id="edge11" class="edge">
<title>frame3_handle&#45;&gt;global_handle</title>
<path fill="none" stroke="black" d="M170.81,-860.51C182.82,-862.46 229.52,-868.18 251.88,-844 306.83,-784.57 219.14,-724.39 271.88,-663 280.37,-653.12 295.46,-650.34 306.59,-649.74"/>
<polygon fill="black" stroke="black" points="306.24,-653.24 316.25,-649.77 306.26,-646.24 306.24,-653.24"/>
</g>
<!-- frame3_values -->
<g id="node17" class="node">
<title>frame3_values</title>
<ellipse fill="none" stroke="black" cx="166.94" cy="-922" rx="71.24" ry="40.66"/>
<text text-anchor="middle" x="166.94" y="-933.45" font-family="Times,serif" font-size="14.00">product = 2 </text>
<text text-anchor="middle" x="166.94" y="-916.95" font-family="Times,serif" font-size="14.00"> counter = 3 </text>
<text text-anchor="middle" x="166.94" y="-900.45" font-family="Times,serif" font-size="14.00"> max&#45;count = 6</text>
</g>
<!-- step3 -->
<g id="node18" class="node">
<title>step3</title>
<ellipse fill="none" stroke="white" cx="166.94" cy="-999" rx="67.73" ry="18"/>
<text text-anchor="middle" x="166.94" y="-993.95" font-family="Times,serif" font-size="14.00">(fact&#45;iter 6 4 6)</text>
</g>
<!-- E3 -->
<g id="node19" class="node">
<title>E3</title>
<ellipse fill="none" stroke="white" cx="27" cy="-860" rx="27" ry="18"/>
<text text-anchor="middle" x="27" y="-854.95" font-family="Times,serif" font-size="14.00">E3</text>
</g>
<!-- E3&#45;&gt;frame3_handle -->
<g id="edge12" class="edge">
<title>E3&#45;&gt;frame3_handle</title>
<path fill="none" stroke="black" d="M54.27,-860C83.25,-860 128.82,-860 151.76,-860"/>
<polygon fill="black" stroke="black" points="151.64,-863.5 161.64,-860 151.64,-856.5 151.64,-863.5"/>
</g>
<!-- frame4_handle -->
<g id="node20" class="node">
<title>frame4_handle</title>
<ellipse fill="black" stroke="black" cx="166.94" cy="-650" rx="3.6" ry="3.6"/>
</g>
<!-- frame4_handle&#45;&gt;global_handle -->
<g id="edge13" class="edge">
<title>frame4_handle&#45;&gt;global_handle</title>
<path fill="none" stroke="black" d="M170.85,-650C187.65,-650 272.58,-650 306.49,-650"/>
<polygon fill="black" stroke="black" points="306.3,-653.5 316.3,-650 306.3,-646.5 306.3,-653.5"/>
</g>
<!-- frame4_values -->
<g id="node21" class="node">
<title>frame4_values</title>
<ellipse fill="none" stroke="black" cx="166.94" cy="-712" rx="71.24" ry="40.66"/>
<text text-anchor="middle" x="166.94" y="-723.45" font-family="Times,serif" font-size="14.00">product = 6 </text>
<text text-anchor="middle" x="166.94" y="-706.95" font-family="Times,serif" font-size="14.00"> counter = 4 </text>
<text text-anchor="middle" x="166.94" y="-690.45" font-family="Times,serif" font-size="14.00"> max&#45;count = 6</text>
</g>
<!-- step4 -->
<g id="node22" class="node">
<title>step4</title>
<ellipse fill="none" stroke="white" cx="166.94" cy="-789" rx="72.34" ry="18"/>
<text text-anchor="middle" x="166.94" y="-783.95" font-family="Times,serif" font-size="14.00">(fact&#45;iter 24 5 6)</text>
</g>
<!-- E4 -->
<g id="node23" class="node">
<title>E4</title>
<ellipse fill="none" stroke="white" cx="27" cy="-650" rx="27" ry="18"/>
<text text-anchor="middle" x="27" y="-644.95" font-family="Times,serif" font-size="14.00">E4</text>
</g>
<!-- E4&#45;&gt;frame4_handle -->
<g id="edge14" class="edge">
<title>E4&#45;&gt;frame4_handle</title>
<path fill="none" stroke="black" d="M54.27,-650C83.25,-650 128.82,-650 151.76,-650"/>
<polygon fill="black" stroke="black" points="151.64,-653.5 161.64,-650 151.64,-646.5 151.64,-653.5"/>
</g>
<!-- frame5_handle -->
<g id="node24" class="node">
<title>frame5_handle</title>
<ellipse fill="black" stroke="black" cx="166.94" cy="-440" rx="3.6" ry="3.6"/>
</g>
<!-- frame5_handle&#45;&gt;global_handle -->
<g id="edge15" class="edge">
<title>frame5_handle&#45;&gt;global_handle</title>
<path fill="none" stroke="black" d="M170.79,-439.34C182.73,-436.73 229.17,-428.5 251.88,-452 309.35,-511.47 218.06,-574.21 271.88,-637 280.36,-646.89 295.45,-649.67 306.58,-650.27"/>
<polygon fill="black" stroke="black" points="306.26,-653.77 316.25,-650.23 306.24,-646.77 306.26,-653.77"/>
</g>
<!-- frame5_values -->
<g id="node25" class="node">
<title>frame5_values</title>
<ellipse fill="none" stroke="black" cx="166.94" cy="-502" rx="71.24" ry="40.66"/>
<text text-anchor="middle" x="166.94" y="-513.45" font-family="Times,serif" font-size="14.00">product = 24 </text>
<text text-anchor="middle" x="166.94" y="-496.95" font-family="Times,serif" font-size="14.00"> counter = 5 </text>
<text text-anchor="middle" x="166.94" y="-480.45" font-family="Times,serif" font-size="14.00"> max&#45;count = 6</text>
</g>
<!-- step5 -->
<g id="node26" class="node">
<title>step5</title>
<ellipse fill="none" stroke="white" cx="166.94" cy="-579" rx="76.94" ry="18"/>
<text text-anchor="middle" x="166.94" y="-573.95" font-family="Times,serif" font-size="14.00">(fact&#45;iter 120 6 6)</text>
</g>
<!-- E5 -->
<g id="node27" class="node">
<title>E5</title>
<ellipse fill="none" stroke="white" cx="27" cy="-440" rx="27" ry="18"/>
<text text-anchor="middle" x="27" y="-434.95" font-family="Times,serif" font-size="14.00">E5</text>
</g>
<!-- E5&#45;&gt;frame5_handle -->
<g id="edge16" class="edge">
<title>E5&#45;&gt;frame5_handle</title>
<path fill="none" stroke="black" d="M54.27,-440C83.25,-440 128.82,-440 151.76,-440"/>
<polygon fill="black" stroke="black" points="151.64,-443.5 161.64,-440 151.64,-436.5 151.64,-443.5"/>
</g>
<!-- frame6_handle -->
<g id="node28" class="node">
<title>frame6_handle</title>
<ellipse fill="black" stroke="black" cx="166.94" cy="-230" rx="3.6" ry="3.6"/>
</g>
<!-- frame6_handle&#45;&gt;global_handle -->
<g id="edge17" class="edge">
<title>frame6_handle&#45;&gt;global_handle</title>
<path fill="none" stroke="black" d="M170.82,-229.3C182.91,-226.56 229.85,-217.86 251.88,-242 281.51,-274.46 244.25,-602.83 271.88,-637 280.08,-647.13 295.21,-649.87 306.43,-650.39"/>
<polygon fill="black" stroke="black" points="306.26,-653.89 316.21,-650.27 306.17,-646.89 306.26,-653.89"/>
</g>
<!-- frame6_values -->
<g id="node29" class="node">
<title>frame6_values</title>
<ellipse fill="none" stroke="black" cx="166.94" cy="-292" rx="71.24" ry="40.66"/>
<text text-anchor="middle" x="166.94" y="-303.45" font-family="Times,serif" font-size="14.00">product = 120 </text>
<text text-anchor="middle" x="166.94" y="-286.95" font-family="Times,serif" font-size="14.00"> counter = 6 </text>
<text text-anchor="middle" x="166.94" y="-270.45" font-family="Times,serif" font-size="14.00"> max&#45;count = 6</text>
</g>
<!-- step6 -->
<g id="node30" class="node">
<title>step6</title>
<ellipse fill="none" stroke="white" cx="166.94" cy="-369" rx="76.94" ry="18"/>
<text text-anchor="middle" x="166.94" y="-363.95" font-family="Times,serif" font-size="14.00">(fact&#45;iter 720 7 6)</text>
</g>
<!-- E6 -->
<g id="node31" class="node">
<title>E6</title>
<ellipse fill="none" stroke="white" cx="27" cy="-230" rx="27" ry="18"/>
<text text-anchor="middle" x="27" y="-224.95" font-family="Times,serif" font-size="14.00">E6</text>
</g>
<!-- E6&#45;&gt;frame6_handle -->
<g id="edge18" class="edge">
<title>E6&#45;&gt;frame6_handle</title>
<path fill="none" stroke="black" d="M54.27,-230C83.25,-230 128.82,-230 151.76,-230"/>
<polygon fill="black" stroke="black" points="151.64,-233.5 161.64,-230 151.64,-226.5 151.64,-233.5"/>
</g>
<!-- frame7_handle -->
<g id="node32" class="node">
<title>frame7_handle</title>
<ellipse fill="black" stroke="black" cx="166.94" cy="-20" rx="3.6" ry="3.6"/>
</g>
<!-- frame7_handle&#45;&gt;global_handle -->
<g id="edge19" class="edge">
<title>frame7_handle&#45;&gt;global_handle</title>
<path fill="none" stroke="black" d="M170.84,-19.29C182.96,-16.51 230.07,-7.67 251.88,-32 296.78,-82.08 230.05,-584.34 271.88,-637 279.99,-647.2 295.14,-649.93 306.39,-650.43"/>
<polygon fill="black" stroke="black" points="306.25,-653.93 316.2,-650.29 306.15,-646.93 306.25,-653.93"/>
</g>
<!-- frame7_values -->
<g id="node33" class="node">
<title>frame7_values</title>
<ellipse fill="none" stroke="black" cx="166.94" cy="-82" rx="71.24" ry="40.66"/>
<text text-anchor="middle" x="166.94" y="-93.45" font-family="Times,serif" font-size="14.00">product = 720 </text>
<text text-anchor="middle" x="166.94" y="-76.95" font-family="Times,serif" font-size="14.00"> counter = 7 </text>
<text text-anchor="middle" x="166.94" y="-60.45" font-family="Times,serif" font-size="14.00"> max&#45;count = 6</text>
</g>
<!-- step7 -->
<g id="node34" class="node">
<title>step7</title>
<ellipse fill="none" stroke="white" cx="166.94" cy="-159" rx="27" ry="18"/>
<text text-anchor="middle" x="166.94" y="-153.95" font-family="Times,serif" font-size="14.00">720</text>
</g>
<!-- E7 -->
<g id="node35" class="node">
<title>E7</title>
<ellipse fill="none" stroke="white" cx="27" cy="-20" rx="27" ry="18"/>
<text text-anchor="middle" x="27" y="-14.95" font-family="Times,serif" font-size="14.00">E7</text>
</g>
<!-- E7&#45;&gt;frame7_handle -->
<g id="edge20" class="edge">
<title>E7&#45;&gt;frame7_handle</title>
<path fill="none" stroke="black" d="M54.27,-20C83.25,-20 128.82,-20 151.76,-20"/>
<polygon fill="black" stroke="black" points="151.64,-23.5 161.64,-20 151.64,-16.5 151.64,-23.5"/>
</g>
</g>
</svg>
