<?xml version="1.0" encoding="UTF-8" standalone="no"?>
<!DOCTYPE svg PUBLIC "-//W3C//DTD SVG 1.1//EN"
 "http://www.w3.org/Graphics/SVG/1.1/DTD/svg11.dtd">
<!-- Generated by graphviz version 9.0.0 (20230911.1827)
 -->
<!-- Pages: 1 -->
<svg width="973pt" height="1196pt"
 viewBox="0.00 0.00 972.77 1196.00" xmlns="http://www.w3.org/2000/svg" xmlns:xlink="http://www.w3.org/1999/xlink">
<g id="graph0" class="graph" transform="scale(1 1) rotate(0) translate(4 1192)">
<polygon fill="white" stroke="none" points="-4,4 -4,-1192 968.77,-1192 968.77,4 -4,4"/>
<!-- (cc 11 5) -->
<g id="node1" class="node">
<title>(cc 11 5)</title>
<ellipse fill="none" stroke="black" cx="818.19" cy="-1170" rx="44.19" ry="18"/>
<text text-anchor="middle" x="818.19" y="-1164.95" font-family="Times,serif" font-size="14.00">(cc 11 5)</text>
</g>
<!-- (cc 11 4) -->
<g id="node2" class="node">
<title>(cc 11 4)</title>
<ellipse fill="none" stroke="black" cx="782.19" cy="-1098" rx="44.19" ry="18"/>
<text text-anchor="middle" x="782.19" y="-1092.95" font-family="Times,serif" font-size="14.00">(cc 11 4)</text>
</g>
<!-- (cc 11 5)&#45;&#45;(cc 11 4) -->
<g id="edge1" class="edge">
<title>(cc 11 5)&#45;&#45;(cc 11 4)</title>
<path fill="none" stroke="black" d="M809.47,-1152.05C803.81,-1141.05 796.46,-1126.76 790.82,-1115.79"/>
</g>
<!-- (cc &#45;39 5) -->
<g id="node36" class="node">
<title>(cc &#45;39 5)</title>
<ellipse fill="none" stroke="black" cx="857.19" cy="-954" rx="47.26" ry="18"/>
<text text-anchor="middle" x="857.19" y="-948.95" font-family="Times,serif" font-size="14.00">(cc &#45;39 5)</text>
</g>
<!-- (cc 11 5)&#45;&#45;(cc &#45;39 5) -->
<g id="edge81" class="edge">
<title>(cc 11 5)&#45;&#45;(cc &#45;39 5)</title>
<path fill="none" stroke="black" d="M824.47,-1152.02C828.07,-1141.73 832.41,-1128.25 835.19,-1116 846.92,-1064.28 853.28,-1001.69 855.84,-972.1"/>
</g>
<!-- (cc 11 3) -->
<g id="node3" class="node">
<title>(cc 11 3)</title>
<ellipse fill="none" stroke="black" cx="678.19" cy="-1026" rx="44.19" ry="18"/>
<text text-anchor="middle" x="678.19" y="-1020.95" font-family="Times,serif" font-size="14.00">(cc 11 3)</text>
</g>
<!-- (cc 11 4)&#45;&#45;(cc 11 3) -->
<g id="edge2" class="edge">
<title>(cc 11 4)&#45;&#45;(cc 11 3)</title>
<path fill="none" stroke="black" d="M759.88,-1081.98C742.33,-1070.17 718,-1053.8 700.46,-1041.99"/>
</g>
<!-- (cc &#45;14 4) -->
<g id="node35" class="node">
<title>(cc &#45;14 4)</title>
<ellipse fill="none" stroke="black" cx="782.19" cy="-882" rx="47.26" ry="18"/>
<text text-anchor="middle" x="782.19" y="-876.95" font-family="Times,serif" font-size="14.00">(cc &#45;14 4)</text>
</g>
<!-- (cc 11 4)&#45;&#45;(cc &#45;14 4) -->
<g id="edge79" class="edge">
<title>(cc 11 4)&#45;&#45;(cc &#45;14 4)</title>
<path fill="none" stroke="black" d="M782.19,-1079.85C782.19,-1039.78 782.19,-940.38 782.19,-900.23"/>
</g>
<!-- (cc 11 2) -->
<g id="node4" class="node">
<title>(cc 11 2)</title>
<ellipse fill="none" stroke="black" cx="471.19" cy="-954" rx="44.19" ry="18"/>
<text text-anchor="middle" x="471.19" y="-948.95" font-family="Times,serif" font-size="14.00">(cc 11 2)</text>
</g>
<!-- (cc 11 3)&#45;&#45;(cc 11 2) -->
<g id="edge3" class="edge">
<title>(cc 11 3)&#45;&#45;(cc 11 2)</title>
<path fill="none" stroke="black" d="M644.93,-1013.75C606.3,-1000.69 542.95,-979.27 504.36,-966.22"/>
</g>
<!-- (cc 1 3) -->
<g id="node33" class="node">
<title>(cc 1 3)</title>
<ellipse fill="none" stroke="black" cx="678.19" cy="-306" rx="39.58" ry="18"/>
<text text-anchor="middle" x="678.19" y="-300.95" font-family="Times,serif" font-size="14.00">(cc 1 3)</text>
</g>
<!-- (cc 11 3)&#45;&#45;(cc 1 3) -->
<g id="edge68" class="edge">
<title>(cc 11 3)&#45;&#45;(cc 1 3)</title>
<path fill="none" stroke="black" d="M678.19,-1007.51C678.19,-980.71 678.19,-927.87 678.19,-883 678.19,-883 678.19,-883 678.19,-449 678.19,-404.13 678.19,-351.29 678.19,-324.49"/>
</g>
<!-- (cc 11 1) -->
<g id="node5" class="node">
<title>(cc 11 1)</title>
<ellipse fill="none" stroke="black" cx="184.19" cy="-882" rx="44.19" ry="18"/>
<text text-anchor="middle" x="184.19" y="-876.95" font-family="Times,serif" font-size="14.00">(cc 11 1)</text>
</g>
<!-- (cc 11 2)&#45;&#45;(cc 11 1) -->
<g id="edge4" class="edge">
<title>(cc 11 2)&#45;&#45;(cc 11 1)</title>
<path fill="none" stroke="black" d="M433.96,-943.92C378.9,-930.49 276.36,-905.48 221.35,-892.06"/>
</g>
<!-- (cc 6 2) -->
<g id="node30" class="node">
<title>(cc 6 2)</title>
<ellipse fill="none" stroke="black" cx="471.19" cy="-594" rx="39.58" ry="18"/>
<text text-anchor="middle" x="471.19" y="-588.95" font-family="Times,serif" font-size="14.00">(cc 6 2)</text>
</g>
<!-- (cc 11 2)&#45;&#45;(cc 6 2) -->
<g id="edge39" class="edge">
<title>(cc 11 2)&#45;&#45;(cc 6 2)</title>
<path fill="none" stroke="black" d="M471.19,-935.51C471.19,-908.71 471.19,-855.87 471.19,-811 471.19,-811 471.19,-811 471.19,-737 471.19,-692.13 471.19,-639.29 471.19,-612.49"/>
</g>
<!-- (cc 11 0) -->
<g id="node6" class="node">
<title>(cc 11 0)</title>
<ellipse fill="none" stroke="black" cx="44.19" cy="-810" rx="44.19" ry="18"/>
<text text-anchor="middle" x="44.19" y="-804.95" font-family="Times,serif" font-size="14.00">(cc 11 0)</text>
</g>
<!-- (cc 11 1)&#45;&#45;(cc 11 0) -->
<g id="edge5" class="edge">
<title>(cc 11 1)&#45;&#45;(cc 11 0)</title>
<path fill="none" stroke="black" d="M157.19,-867.5C132.4,-855.11 95.86,-836.84 71.1,-824.46"/>
</g>
<!-- (cc 10 1) -->
<g id="node8" class="node">
<title>(cc 10 1)</title>
<ellipse fill="none" stroke="black" cx="184.19" cy="-810" rx="44.19" ry="18"/>
<text text-anchor="middle" x="184.19" y="-804.95" font-family="Times,serif" font-size="14.00">(cc 10 1)</text>
</g>
<!-- (cc 11 1)&#45;&#45;(cc 10 1) -->
<g id="edge7" class="edge">
<title>(cc 11 1)&#45;&#45;(cc 10 1)</title>
<path fill="none" stroke="black" d="M184.19,-863.7C184.19,-852.85 184.19,-838.92 184.19,-828.1"/>
</g>
<!-- 0 -->
<g id="node7" class="node">
<title>0</title>
<ellipse fill="none" stroke="black" cx="436.19" cy="-18" rx="27" ry="18"/>
<text text-anchor="middle" x="436.19" y="-12.95" font-family="Times,serif" font-size="14.00">0</text>
</g>
<!-- (cc 11 0)&#45;&#45;0 -->
<g id="edge6" class="edge">
<title>(cc 11 0)&#45;&#45;0</title>
<path fill="none" stroke="black" d="M40.75,-791.59C35.78,-764.9 27.19,-712.19 27.19,-667 27.19,-667 27.19,-667 27.19,-161 27.19,-116.47 36.93,-97.85 73.19,-72 127.25,-33.46 334.04,-22.54 408.92,-19.82"/>
</g>
<!-- (cc 10 0) -->
<g id="node9" class="node">
<title>(cc 10 0)</title>
<ellipse fill="none" stroke="black" cx="99.19" cy="-738" rx="44.19" ry="18"/>
<text text-anchor="middle" x="99.19" y="-732.95" font-family="Times,serif" font-size="14.00">(cc 10 0)</text>
</g>
<!-- (cc 10 1)&#45;&#45;(cc 10 0) -->
<g id="edge8" class="edge">
<title>(cc 10 1)&#45;&#45;(cc 10 0)</title>
<path fill="none" stroke="black" d="M165.32,-793.46C151.24,-781.86 132.07,-766.08 118,-754.49"/>
</g>
<!-- (cc 9 1) -->
<g id="node10" class="node">
<title>(cc 9 1)</title>
<ellipse fill="none" stroke="black" cx="201.19" cy="-738" rx="39.58" ry="18"/>
<text text-anchor="middle" x="201.19" y="-732.95" font-family="Times,serif" font-size="14.00">(cc 9 1)</text>
</g>
<!-- (cc 10 1)&#45;&#45;(cc 9 1) -->
<g id="edge10" class="edge">
<title>(cc 10 1)&#45;&#45;(cc 9 1)</title>
<path fill="none" stroke="black" d="M188.39,-791.7C191.02,-780.85 194.41,-766.92 197.03,-756.1"/>
</g>
<!-- (cc 10 0)&#45;&#45;0 -->
<g id="edge9" class="edge">
<title>(cc 10 0)&#45;&#45;0</title>
<path fill="none" stroke="black" d="M92.31,-719.83C82.37,-693.44 65.19,-641.14 65.19,-595 65.19,-595 65.19,-595 65.19,-161 65.19,-116.47 75.15,-98.15 111.19,-72 158.79,-37.46 339.81,-24.2 409.04,-20.33"/>
</g>
<!-- (cc 9 0) -->
<g id="node11" class="node">
<title>(cc 9 0)</title>
<ellipse fill="none" stroke="black" cx="133.19" cy="-666" rx="39.58" ry="18"/>
<text text-anchor="middle" x="133.19" y="-660.95" font-family="Times,serif" font-size="14.00">(cc 9 0)</text>
</g>
<!-- (cc 9 1)&#45;&#45;(cc 9 0) -->
<g id="edge11" class="edge">
<title>(cc 9 1)&#45;&#45;(cc 9 0)</title>
<path fill="none" stroke="black" d="M185.76,-721.12C174.63,-709.66 159.67,-694.26 148.56,-682.82"/>
</g>
<!-- (cc 8 1) -->
<g id="node12" class="node">
<title>(cc 8 1)</title>
<ellipse fill="none" stroke="black" cx="230.19" cy="-666" rx="39.58" ry="18"/>
<text text-anchor="middle" x="230.19" y="-660.95" font-family="Times,serif" font-size="14.00">(cc 8 1)</text>
</g>
<!-- (cc 9 1)&#45;&#45;(cc 8 1) -->
<g id="edge13" class="edge">
<title>(cc 9 1)&#45;&#45;(cc 8 1)</title>
<path fill="none" stroke="black" d="M208.21,-720.05C212.77,-709.05 218.68,-694.76 223.23,-683.79"/>
</g>
<!-- (cc 9 0)&#45;&#45;0 -->
<g id="edge12" class="edge">
<title>(cc 9 0)&#45;&#45;0</title>
<path fill="none" stroke="black" d="M127.12,-647.76C118.35,-621.28 103.19,-568.86 103.19,-523 103.19,-523 103.19,-523 103.19,-161 103.19,-116.47 113.42,-98.53 149.19,-72 190.39,-41.44 345.99,-26.06 409.22,-20.97"/>
</g>
<!-- (cc 8 0) -->
<g id="node13" class="node">
<title>(cc 8 0)</title>
<ellipse fill="none" stroke="black" cx="171.19" cy="-522" rx="39.58" ry="18"/>
<text text-anchor="middle" x="171.19" y="-516.95" font-family="Times,serif" font-size="14.00">(cc 8 0)</text>
</g>
<!-- (cc 8 1)&#45;&#45;(cc 8 0) -->
<g id="edge14" class="edge">
<title>(cc 8 1)&#45;&#45;(cc 8 0)</title>
<path fill="none" stroke="black" d="M215.18,-649.03C206.63,-639.09 196.41,-625.63 190.19,-612 179.49,-588.57 174.71,-558.9 172.65,-540.43"/>
</g>
<!-- (cc 7 1) -->
<g id="node14" class="node">
<title>(cc 7 1)</title>
<ellipse fill="none" stroke="black" cx="239.19" cy="-594" rx="39.58" ry="18"/>
<text text-anchor="middle" x="239.19" y="-588.95" font-family="Times,serif" font-size="14.00">(cc 7 1)</text>
</g>
<!-- (cc 8 1)&#45;&#45;(cc 7 1) -->
<g id="edge16" class="edge">
<title>(cc 8 1)&#45;&#45;(cc 7 1)</title>
<path fill="none" stroke="black" d="M232.41,-647.7C233.81,-636.85 235.6,-622.92 236.99,-612.1"/>
</g>
<!-- (cc 8 0)&#45;&#45;0 -->
<g id="edge15" class="edge">
<title>(cc 8 0)&#45;&#45;0</title>
<path fill="none" stroke="black" d="M165.12,-503.76C156.35,-477.28 141.19,-424.86 141.19,-379 141.19,-379 141.19,-379 141.19,-161 141.19,-116.27 152.51,-98.99 188.19,-72 223.03,-45.63 352.95,-28.29 409.55,-21.83"/>
</g>
<!-- (cc 7 0) -->
<g id="node15" class="node">
<title>(cc 7 0)</title>
<ellipse fill="none" stroke="black" cx="209.19" cy="-450" rx="39.58" ry="18"/>
<text text-anchor="middle" x="209.19" y="-444.95" font-family="Times,serif" font-size="14.00">(cc 7 0)</text>
</g>
<!-- (cc 7 1)&#45;&#45;(cc 7 0) -->
<g id="edge17" class="edge">
<title>(cc 7 1)&#45;&#45;(cc 7 0)</title>
<path fill="none" stroke="black" d="M235.51,-575.59C229.72,-548.19 218.55,-495.32 212.8,-468.11"/>
</g>
<!-- (cc 6 1) -->
<g id="node16" class="node">
<title>(cc 6 1)</title>
<ellipse fill="none" stroke="black" cx="335.19" cy="-522" rx="39.58" ry="18"/>
<text text-anchor="middle" x="335.19" y="-516.95" font-family="Times,serif" font-size="14.00">(cc 6 1)</text>
</g>
<!-- (cc 7 1)&#45;&#45;(cc 6 1) -->
<g id="edge19" class="edge">
<title>(cc 7 1)&#45;&#45;(cc 6 1)</title>
<path fill="none" stroke="black" d="M259.55,-578.15C275.84,-566.28 298.57,-549.7 314.86,-537.82"/>
</g>
<!-- (cc 7 0)&#45;&#45;0 -->
<g id="edge18" class="edge">
<title>(cc 7 0)&#45;&#45;0</title>
<path fill="none" stroke="black" d="M203.12,-431.76C194.35,-405.28 179.19,-352.86 179.19,-307 179.19,-307 179.19,-307 179.19,-161 179.19,-116.06 191.75,-99.63 227.19,-72 281.5,-29.65 365.71,-20.8 408.78,-19.17"/>
</g>
<!-- (cc 6 0) -->
<g id="node17" class="node">
<title>(cc 6 0)</title>
<ellipse fill="none" stroke="black" cx="247.19" cy="-378" rx="39.58" ry="18"/>
<text text-anchor="middle" x="247.19" y="-372.95" font-family="Times,serif" font-size="14.00">(cc 6 0)</text>
</g>
<!-- (cc 6 1)&#45;&#45;(cc 6 0) -->
<g id="edge20" class="edge">
<title>(cc 6 1)&#45;&#45;(cc 6 0)</title>
<path fill="none" stroke="black" d="M320.8,-504.99C301.07,-478 267.39,-423.72 253.18,-396.06"/>
</g>
<!-- (cc 6 1)&#45;&#45;(cc 6 0) -->
<g id="edge41" class="edge">
<title>(cc 6 1)&#45;&#45;(cc 6 0)</title>
<path fill="none" stroke="black" d="M329.16,-503.87C314.9,-476.14 281.18,-421.79 261.48,-394.88"/>
</g>
<!-- (cc 5 1) -->
<g id="node18" class="node">
<title>(cc 5 1)</title>
<ellipse fill="none" stroke="black" cx="363.19" cy="-450" rx="39.58" ry="18"/>
<text text-anchor="middle" x="363.19" y="-444.95" font-family="Times,serif" font-size="14.00">(cc 5 1)</text>
</g>
<!-- (cc 6 1)&#45;&#45;(cc 5 1) -->
<g id="edge22" class="edge">
<title>(cc 6 1)&#45;&#45;(cc 5 1)</title>
<path fill="none" stroke="black" d="M336.19,-503.7C339.51,-492.52 345.33,-478.08 350.94,-467.14"/>
</g>
<!-- (cc 6 1)&#45;&#45;(cc 5 1) -->
<g id="edge43" class="edge">
<title>(cc 6 1)&#45;&#45;(cc 5 1)</title>
<path fill="none" stroke="black" d="M347.48,-504.76C353.11,-493.78 358.93,-479.29 362.23,-468.12"/>
</g>
<!-- (cc 6 0)&#45;&#45;0 -->
<g id="edge21" class="edge">
<title>(cc 6 0)&#45;&#45;0</title>
<path fill="none" stroke="black" d="M237.32,-360.07C227.92,-333.57 217.19,-280.61 217.19,-235 217.19,-235 217.19,-235 217.19,-161 217.19,-119.53 215.55,-101.01 245.19,-72 289.52,-28.61 367.24,-20.38 408.74,-19.06"/>
</g>
<!-- (cc 6 0)&#45;&#45;0 -->
<g id="edge42" class="edge">
<title>(cc 6 0)&#45;&#45;0</title>
<path fill="none" stroke="black" d="M248.7,-359.63C245.8,-332.99 235.19,-280.36 235.19,-235 235.19,-235 235.19,-235 235.19,-161 235.19,-119.53 233.55,-101.01 263.19,-72 303.4,-32.64 371.1,-22.21 408.94,-19.63"/>
</g>
<!-- (cc 5 0) -->
<g id="node19" class="node">
<title>(cc 5 0)</title>
<ellipse fill="none" stroke="black" cx="303.19" cy="-90" rx="39.58" ry="18"/>
<text text-anchor="middle" x="303.19" y="-84.95" font-family="Times,serif" font-size="14.00">(cc 5 0)</text>
</g>
<!-- (cc 5 1)&#45;&#45;(cc 5 0) -->
<g id="edge23" class="edge">
<title>(cc 5 1)&#45;&#45;(cc 5 0)</title>
<path fill="none" stroke="black" d="M351.76,-432.33C348.29,-421.91 345.43,-408.2 343.19,-396 323.1,-286.82 303.46,-154.79 301.43,-108.24"/>
</g>
<!-- (cc 5 1)&#45;&#45;(cc 5 0) -->
<g id="edge44" class="edge">
<title>(cc 5 1)&#45;&#45;(cc 5 0)</title>
<path fill="none" stroke="black" d="M367.24,-431.85C366.2,-421.49 363.4,-408.02 361.19,-396 341.05,-286.55 321.36,-154.15 309.83,-107.91"/>
</g>
<!-- (cc 4 1) -->
<g id="node20" class="node">
<title>(cc 4 1)</title>
<ellipse fill="none" stroke="black" cx="401.19" cy="-378" rx="39.58" ry="18"/>
<text text-anchor="middle" x="401.19" y="-372.95" font-family="Times,serif" font-size="14.00">(cc 4 1)</text>
</g>
<!-- (cc 5 1)&#45;&#45;(cc 4 1) -->
<g id="edge25" class="edge">
<title>(cc 5 1)&#45;&#45;(cc 4 1)</title>
<path fill="none" stroke="black" d="M366.66,-431.7C371.58,-420.52 379.46,-406.08 386.63,-395.14"/>
</g>
<!-- (cc 5 1)&#45;&#45;(cc 4 1) -->
<g id="edge46" class="edge">
<title>(cc 5 1)&#45;&#45;(cc 4 1)</title>
<path fill="none" stroke="black" d="M377.57,-433.12C384.79,-422.14 392.76,-407.56 397.71,-396.29"/>
</g>
<!-- (cc 5 0)&#45;&#45;0 -->
<g id="edge24" class="edge">
<title>(cc 5 0)&#45;&#45;0</title>
<path fill="none" stroke="black" d="M324.85,-74.67C349.34,-60.83 388.66,-40.27 413.55,-28.4"/>
</g>
<!-- (cc 5 0)&#45;&#45;0 -->
<g id="edge45" class="edge">
<title>(cc 5 0)&#45;&#45;0</title>
<path fill="none" stroke="black" d="M331.29,-76.97C357.34,-64.3 395.08,-44.45 417.6,-31.58"/>
</g>
<!-- (cc 4 0) -->
<g id="node21" class="node">
<title>(cc 4 0)</title>
<ellipse fill="none" stroke="black" cx="400.19" cy="-306" rx="39.58" ry="18"/>
<text text-anchor="middle" x="400.19" y="-300.95" font-family="Times,serif" font-size="14.00">(cc 4 0)</text>
</g>
<!-- (cc 4 1)&#45;&#45;(cc 4 0) -->
<g id="edge26" class="edge">
<title>(cc 4 1)&#45;&#45;(cc 4 0)</title>
<path fill="none" stroke="black" d="M395.07,-360.05C393.76,-349.21 393.55,-335.18 394.52,-324.28"/>
</g>
<!-- (cc 4 1)&#45;&#45;(cc 4 0) -->
<g id="edge47" class="edge">
<title>(cc 4 1)&#45;&#45;(cc 4 0)</title>
<path fill="none" stroke="black" d="M406.85,-359.7C407.82,-348.85 407.61,-334.92 406.33,-324.1"/>
</g>
<!-- (cc 3 1) -->
<g id="node22" class="node">
<title>(cc 3 1)</title>
<ellipse fill="none" stroke="black" cx="497.19" cy="-306" rx="39.58" ry="18"/>
<text text-anchor="middle" x="497.19" y="-300.95" font-family="Times,serif" font-size="14.00">(cc 3 1)</text>
</g>
<!-- (cc 4 1)&#45;&#45;(cc 3 1) -->
<g id="edge28" class="edge">
<title>(cc 4 1)&#45;&#45;(cc 3 1)</title>
<path fill="none" stroke="black" d="M417.21,-361.12C432.51,-348.93 455.42,-332.3 472.92,-320.7"/>
</g>
<!-- (cc 4 1)&#45;&#45;(cc 3 1) -->
<g id="edge49" class="edge">
<title>(cc 4 1)&#45;&#45;(cc 3 1)</title>
<path fill="none" stroke="black" d="M425.4,-363.34C442.93,-351.72 465.91,-335.03 481.23,-322.83"/>
</g>
<!-- (cc 4 0)&#45;&#45;0 -->
<g id="edge27" class="edge">
<title>(cc 4 0)&#45;&#45;0</title>
<path fill="none" stroke="black" d="M394.46,-287.99C390.63,-258.51 391.07,-196.11 398.19,-144 403.61,-104.27 415.74,-58.61 425.6,-35"/>
</g>
<!-- (cc 4 0)&#45;&#45;0 -->
<g id="edge48" class="edge">
<title>(cc 4 0)&#45;&#45;0</title>
<path fill="none" stroke="black" d="M405.33,-287.99C408.63,-258.51 409.07,-196.11 416.19,-144 421.52,-104.93 433.34,-60.13 437.15,-36.2"/>
</g>
<!-- (cc 3 0) -->
<g id="node23" class="node">
<title>(cc 3 0)</title>
<ellipse fill="none" stroke="black" cx="456.19" cy="-162" rx="39.58" ry="18"/>
<text text-anchor="middle" x="456.19" y="-156.95" font-family="Times,serif" font-size="14.00">(cc 3 0)</text>
</g>
<!-- (cc 3 1)&#45;&#45;(cc 3 0) -->
<g id="edge29" class="edge">
<title>(cc 3 1)&#45;&#45;(cc 3 0)</title>
<path fill="none" stroke="black" d="M487.77,-288.15C477.01,-260.97 461.62,-207.72 456.57,-180.27"/>
</g>
<!-- (cc 3 1)&#45;&#45;(cc 3 0) -->
<g id="edge50" class="edge">
<title>(cc 3 1)&#45;&#45;(cc 3 0)</title>
<path fill="none" stroke="black" d="M496.77,-287.59C491.69,-260.04 476.28,-206.75 465.54,-179.67"/>
</g>
<!-- (cc 2 1) -->
<g id="node24" class="node">
<title>(cc 2 1)</title>
<ellipse fill="none" stroke="black" cx="533.19" cy="-234" rx="39.58" ry="18"/>
<text text-anchor="middle" x="533.19" y="-228.95" font-family="Times,serif" font-size="14.00">(cc 2 1)</text>
</g>
<!-- (cc 3 1)&#45;&#45;(cc 2 1) -->
<g id="edge31" class="edge">
<title>(cc 3 1)&#45;&#45;(cc 2 1)</title>
<path fill="none" stroke="black" d="M500.17,-287.7C504.76,-276.52 512.23,-262.08 519.09,-251.14"/>
</g>
<!-- (cc 3 1)&#45;&#45;(cc 2 1) -->
<g id="edge52" class="edge">
<title>(cc 3 1)&#45;&#45;(cc 2 1)</title>
<path fill="none" stroke="black" d="M511.34,-288.76C518.22,-277.78 525.7,-263.29 530.28,-252.12"/>
</g>
<!-- (cc 3 0)&#45;&#45;0 -->
<g id="edge30" class="edge">
<title>(cc 3 0)&#45;&#45;0</title>
<path fill="none" stroke="black" d="M449.19,-143.87C442.46,-116.58 434.98,-63.52 434.02,-36.19"/>
</g>
<!-- (cc 3 0)&#45;&#45;0 -->
<g id="edge51" class="edge">
<title>(cc 3 0)&#45;&#45;0</title>
<path fill="none" stroke="black" d="M458.35,-143.59C457.34,-116.04 449.81,-62.75 443.07,-35.67"/>
</g>
<!-- (cc 2 0) -->
<g id="node25" class="node">
<title>(cc 2 0)</title>
<ellipse fill="none" stroke="black" cx="513.19" cy="-90" rx="39.58" ry="18"/>
<text text-anchor="middle" x="513.19" y="-84.95" font-family="Times,serif" font-size="14.00">(cc 2 0)</text>
</g>
<!-- (cc 2 1)&#45;&#45;(cc 2 0) -->
<g id="edge32" class="edge">
<title>(cc 2 1)&#45;&#45;(cc 2 0)</title>
<path fill="none" stroke="black" d="M526.19,-215.87C519.46,-188.58 511.98,-135.52 511.02,-108.19"/>
</g>
<!-- (cc 2 1)&#45;&#45;(cc 2 0) -->
<g id="edge53" class="edge">
<title>(cc 2 1)&#45;&#45;(cc 2 0)</title>
<path fill="none" stroke="black" d="M535.35,-215.59C534.35,-188.19 526.89,-135.32 520.18,-108.11"/>
</g>
<!-- (cc 1 1) -->
<g id="node26" class="node">
<title>(cc 1 1)</title>
<ellipse fill="none" stroke="black" cx="610.19" cy="-162" rx="39.58" ry="18"/>
<text text-anchor="middle" x="610.19" y="-156.95" font-family="Times,serif" font-size="14.00">(cc 1 1)</text>
</g>
<!-- (cc 2 1)&#45;&#45;(cc 1 1) -->
<g id="edge34" class="edge">
<title>(cc 2 1)&#45;&#45;(cc 1 1)</title>
<path fill="none" stroke="black" d="M545.59,-216.41C557.29,-204.61 574.65,-188.89 588.56,-177.57"/>
</g>
<!-- (cc 2 1)&#45;&#45;(cc 1 1) -->
<g id="edge55" class="edge">
<title>(cc 2 1)&#45;&#45;(cc 1 1)</title>
<path fill="none" stroke="black" d="M554.73,-218.5C568.71,-207.12 586.2,-191.29 597.92,-179.45"/>
</g>
<!-- (cc 2 0)&#45;&#45;0 -->
<g id="edge33" class="edge">
<title>(cc 2 0)&#45;&#45;0</title>
<path fill="none" stroke="black" d="M491.64,-74.5C477.27,-62.8 459.19,-46.4 447.48,-34.46"/>
</g>
<!-- (cc 2 0)&#45;&#45;0 -->
<g id="edge54" class="edge">
<title>(cc 2 0)&#45;&#45;0</title>
<path fill="none" stroke="black" d="M500.78,-72.41C488.28,-59.8 469.31,-42.72 455.01,-31.31"/>
</g>
<!-- (cc 1 0) -->
<g id="node27" class="node">
<title>(cc 1 0)</title>
<ellipse fill="none" stroke="black" cx="610.19" cy="-90" rx="39.58" ry="18"/>
<text text-anchor="middle" x="610.19" y="-84.95" font-family="Times,serif" font-size="14.00">(cc 1 0)</text>
</g>
<!-- (cc 1 1)&#45;&#45;(cc 1 0) -->
<g id="edge35" class="edge">
<title>(cc 1 1)&#45;&#45;(cc 1 0)</title>
<path fill="none" stroke="black" d="M593.03,-145.46C588.9,-133.86 588.91,-118.08 593.04,-106.49"/>
</g>
<!-- (cc 1 1)&#45;&#45;(cc 1 0) -->
<g id="edge56" class="edge">
<title>(cc 1 1)&#45;&#45;(cc 1 0)</title>
<path fill="none" stroke="black" d="M604.31,-144.05C603.16,-133.21 603.15,-119.18 604.27,-108.28"/>
</g>
<!-- (cc 1 1)&#45;&#45;(cc 1 0) -->
<g id="edge62" class="edge">
<title>(cc 1 1)&#45;&#45;(cc 1 0)</title>
<path fill="none" stroke="black" d="M616.06,-144.05C617.22,-133.21 617.23,-119.18 616.1,-108.28"/>
</g>
<!-- (cc 1 1)&#45;&#45;(cc 1 0) -->
<g id="edge71" class="edge">
<title>(cc 1 1)&#45;&#45;(cc 1 0)</title>
<path fill="none" stroke="black" d="M627.35,-145.46C631.47,-133.86 631.47,-118.08 627.33,-106.49"/>
</g>
<!-- (cc 0 1) -->
<g id="node28" class="node">
<title>(cc 0 1)</title>
<ellipse fill="none" stroke="black" cx="925.19" cy="-90" rx="39.58" ry="18"/>
<text text-anchor="middle" x="925.19" y="-84.95" font-family="Times,serif" font-size="14.00">(cc 0 1)</text>
</g>
<!-- (cc 1 1)&#45;&#45;(cc 0 1) -->
<g id="edge37" class="edge">
<title>(cc 1 1)&#45;&#45;(cc 0 1)</title>
<path fill="none" stroke="black" d="M626.8,-145.26C628.27,-144.82 629.74,-144.4 631.19,-144 719.82,-119.64 827.9,-101.7 886.55,-94.49"/>
</g>
<!-- (cc 1 1)&#45;&#45;(cc 0 1) -->
<g id="edge58" class="edge">
<title>(cc 1 1)&#45;&#45;(cc 0 1)</title>
<path fill="none" stroke="black" d="M636.2,-147.97C640.5,-146.53 644.92,-145.17 649.19,-144 732.81,-121.02 833.73,-103.75 887.51,-95.82"/>
</g>
<!-- (cc 1 1)&#45;&#45;(cc 0 1) -->
<g id="edge64" class="edge">
<title>(cc 1 1)&#45;&#45;(cc 0 1)</title>
<path fill="none" stroke="black" d="M643.23,-151.57C651.12,-148.9 659.43,-146.13 667.19,-144 745.34,-122.52 838.61,-106.04 888.96,-97.49"/>
</g>
<!-- (cc 1 1)&#45;&#45;(cc 0 1) -->
<g id="edge73" class="edge">
<title>(cc 1 1)&#45;&#45;(cc 0 1)</title>
<path fill="none" stroke="black" d="M647.55,-155.32C660.96,-151.72 673.68,-147.16 685.19,-144 757.64,-124.09 843.09,-108.47 890.97,-99.49"/>
</g>
<!-- (cc 1 0)&#45;&#45;0 -->
<g id="edge36" class="edge">
<title>(cc 1 0)&#45;&#45;0</title>
<path fill="none" stroke="black" d="M575.88,-80.7C538.49,-68.78 482.72,-46.7 453.25,-32.44"/>
</g>
<!-- (cc 1 0)&#45;&#45;0 -->
<g id="edge57" class="edge">
<title>(cc 1 0)&#45;&#45;0</title>
<path fill="none" stroke="black" d="M579.15,-78.52C544,-65.32 487.96,-42.78 457.42,-29.55"/>
</g>
<!-- (cc 1 0)&#45;&#45;0 -->
<g id="edge63" class="edge">
<title>(cc 1 0)&#45;&#45;0</title>
<path fill="none" stroke="black" d="M583.64,-76.16C549.94,-61.75 492.67,-38.84 460.2,-26.87"/>
</g>
<!-- (cc 1 0)&#45;&#45;0 -->
<g id="edge72" class="edge">
<title>(cc 1 0)&#45;&#45;0</title>
<path fill="none" stroke="black" d="M590.19,-74.15C557.5,-58.66 497.36,-35.18 461.6,-24.56"/>
</g>
<!-- 1 -->
<g id="node29" class="node">
<title>1</title>
<ellipse fill="none" stroke="black" cx="925.19" cy="-18" rx="27" ry="18"/>
<text text-anchor="middle" x="925.19" y="-12.95" font-family="Times,serif" font-size="14.00">1</text>
</g>
<!-- (cc 0 1)&#45;&#45;1 -->
<g id="edge38" class="edge">
<title>(cc 0 1)&#45;&#45;1</title>
<path fill="none" stroke="black" d="M908.03,-73.46C903.67,-61.22 903.92,-44.32 908.77,-32.6"/>
</g>
<!-- (cc 0 1)&#45;&#45;1 -->
<g id="edge59" class="edge">
<title>(cc 0 1)&#45;&#45;1</title>
<path fill="none" stroke="black" d="M919.31,-72.05C918.14,-61.05 918.15,-46.76 919.32,-35.79"/>
</g>
<!-- (cc 0 1)&#45;&#45;1 -->
<g id="edge65" class="edge">
<title>(cc 0 1)&#45;&#45;1</title>
<path fill="none" stroke="black" d="M931.06,-72.05C932.23,-61.05 932.23,-46.76 931.05,-35.79"/>
</g>
<!-- (cc 0 1)&#45;&#45;1 -->
<g id="edge74" class="edge">
<title>(cc 0 1)&#45;&#45;1</title>
<path fill="none" stroke="black" d="M942.35,-73.46C946.7,-61.22 946.45,-44.32 941.6,-32.6"/>
</g>
<!-- (cc 6 2)&#45;&#45;(cc 6 1) -->
<g id="edge40" class="edge">
<title>(cc 6 2)&#45;&#45;(cc 6 1)</title>
<path fill="none" stroke="black" d="M445.61,-579.83C421.29,-567.32 384.93,-548.6 360.65,-536.11"/>
</g>
<!-- (cc 1 2) -->
<g id="node31" class="node">
<title>(cc 1 2)</title>
<ellipse fill="none" stroke="black" cx="635.19" cy="-234" rx="39.58" ry="18"/>
<text text-anchor="middle" x="635.19" y="-228.95" font-family="Times,serif" font-size="14.00">(cc 1 2)</text>
</g>
<!-- (cc 6 2)&#45;&#45;(cc 1 2) -->
<g id="edge60" class="edge">
<title>(cc 6 2)&#45;&#45;(cc 1 2)</title>
<path fill="none" stroke="black" d="M494.58,-579.02C528.73,-556.64 588.19,-509.3 588.19,-451 588.19,-451 588.19,-451 588.19,-377 588.19,-329.74 611.94,-277.91 625.67,-251.89"/>
</g>
<!-- (cc 1 2)&#45;&#45;(cc 1 1) -->
<g id="edge61" class="edge">
<title>(cc 1 2)&#45;&#45;(cc 1 1)</title>
<path fill="none" stroke="black" d="M623.42,-216.41C618.37,-205.58 613.29,-191.45 610.49,-180.45"/>
</g>
<!-- (cc 1 2)&#45;&#45;(cc 1 1) -->
<g id="edge70" class="edge">
<title>(cc 1 2)&#45;&#45;(cc 1 1)</title>
<path fill="none" stroke="black" d="M634.92,-215.7C632.13,-204.68 627.04,-190.5 621.97,-179.62"/>
</g>
<!-- (cc &#45;4 2) -->
<g id="node32" class="node">
<title>(cc &#45;4 2)</title>
<ellipse fill="none" stroke="black" cx="710.19" cy="-162" rx="42.65" ry="18"/>
<text text-anchor="middle" x="710.19" y="-156.95" font-family="Times,serif" font-size="14.00">(cc &#45;4 2)</text>
</g>
<!-- (cc 1 2)&#45;&#45;(cc &#45;4 2) -->
<g id="edge66" class="edge">
<title>(cc 1 2)&#45;&#45;(cc &#45;4 2)</title>
<path fill="none" stroke="black" d="M647.12,-216.41C658.4,-204.69 675.16,-189.11 688.69,-177.8"/>
</g>
<!-- (cc 1 2)&#45;&#45;(cc &#45;4 2) -->
<g id="edge75" class="edge">
<title>(cc 1 2)&#45;&#45;(cc &#45;4 2)</title>
<path fill="none" stroke="black" d="M656.32,-218.5C669.87,-207.2 686.76,-191.51 698.15,-179.7"/>
</g>
<!-- (cc &#45;4 2)&#45;&#45;0 -->
<g id="edge67" class="edge">
<title>(cc &#45;4 2)&#45;&#45;0</title>
<path fill="none" stroke="black" d="M698.97,-144.46C689.31,-124.21 674.72,-90.34 650.19,-72 593.29,-29.47 507.32,-20.48 463.53,-18.94"/>
</g>
<!-- (cc &#45;4 2)&#45;&#45;0 -->
<g id="edge76" class="edge">
<title>(cc &#45;4 2)&#45;&#45;0</title>
<path fill="none" stroke="black" d="M711.36,-143.75C706.97,-123.43 692.43,-90.13 668.19,-72 606.51,-25.9 510.67,-19.21 463.66,-18.69"/>
</g>
<!-- (cc 1 3)&#45;&#45;(cc 1 2) -->
<g id="edge69" class="edge">
<title>(cc 1 3)&#45;&#45;(cc 1 2)</title>
<path fill="none" stroke="black" d="M668,-288.41C661.14,-277.25 652.14,-262.6 645.3,-251.47"/>
</g>
<!-- (cc &#45;9 3) -->
<g id="node34" class="node">
<title>(cc &#45;9 3)</title>
<ellipse fill="none" stroke="black" cx="744.19" cy="-234" rx="42.65" ry="18"/>
<text text-anchor="middle" x="744.19" y="-228.95" font-family="Times,serif" font-size="14.00">(cc &#45;9 3)</text>
</g>
<!-- (cc 1 3)&#45;&#45;(cc &#45;9 3) -->
<g id="edge77" class="edge">
<title>(cc 1 3)&#45;&#45;(cc &#45;9 3)</title>
<path fill="none" stroke="black" d="M693.16,-289.12C703.96,-277.66 718.48,-262.26 729.27,-250.82"/>
</g>
<!-- (cc &#45;9 3)&#45;&#45;0 -->
<g id="edge78" class="edge">
<title>(cc &#45;9 3)&#45;&#45;0</title>
<path fill="none" stroke="black" d="M753.09,-216.13C761.47,-197.87 771.47,-168.13 762.19,-144 746.71,-103.76 734.63,-93.36 697.19,-72 620.48,-28.24 512.94,-20.28 463.28,-19.05"/>
</g>
<!-- (cc &#45;14 4)&#45;&#45;0 -->
<g id="edge80" class="edge">
<title>(cc &#45;14 4)&#45;&#45;0</title>
<path fill="none" stroke="black" d="M789.67,-863.89C800.49,-837.58 819.19,-785.37 819.19,-739 819.19,-739 819.19,-739 819.19,-161 819.19,-106.61 783.05,-97.83 735.19,-72 644.72,-23.18 518.59,-17.98 463.62,-18.28"/>
</g>
<!-- (cc &#45;39 5)&#45;&#45;0 -->
<g id="edge82" class="edge">
<title>(cc &#45;39 5)&#45;&#45;0</title>
<path fill="none" stroke="black" d="M857.19,-935.51C857.19,-908.71 857.19,-855.87 857.19,-811 857.19,-811 857.19,-811 857.19,-161 857.19,-108.7 825.96,-97.32 780.19,-72 725.46,-41.73 534.32,-25.76 463.16,-20.75"/>
</g>
</g>
</svg>
