<?xml version="1.0" encoding="UTF-8" standalone="no"?>
<!DOCTYPE svg PUBLIC "-//W3C//DTD SVG 1.1//EN"
 "http://www.w3.org/Graphics/SVG/1.1/DTD/svg11.dtd">
<!-- Generated by graphviz version 9.0.0 (20230911.1827)
 -->
<!-- Pages: 1 -->
<svg width="973pt" height="1196pt"
 viewBox="0.00 0.00 972.77 1196.00" xmlns="http://www.w3.org/2000/svg" xmlns:xlink="http://www.w3.org/1999/xlink">
<g id="graph0" class="graph" transform="scale(1 1) rotate(0) translate(4 1192)">
<polygon fill="white" stroke="none" points="-4,4 -4,-1192 968.77,-1192 968.77,4 -4,4"/>
<!-- (cc 11 5) -->
<g id="node1" class="node">
<title>(cc 11 5)</title>
<ellipse fill="none" stroke="black" cx="818.19" cy="-1170" rx="44.19" ry="18"/>
<text text-anchor="middle" x="818.19" y="-1164.95" font-family="Times,serif" font-size="14.00">(cc 11 5)</text>
</g>
<!-- (cc 11 4) -->
<g id="node2" class="node">
<title>(cc 11 4)</title>
<ellipse fill="none" stroke="black" cx="782.19" cy="-1098" rx="44.19" ry="18"/>
<text text-anchor="middle" x="782.19" y="-1092.95" font-family="Times,serif" font-size="14.00">(cc 11 4)</text>
</g>
<!-- (cc 11 5)&#45;&gt;(cc 11 4) -->
<g id="edge1" class="edge">
<title>(cc 11 5)&#45;&gt;(cc 11 4)</title>
<path fill="none" stroke="black" d="M809.47,-1152.05C805.45,-1144.23 800.57,-1134.75 796.06,-1125.98"/>
<polygon fill="black" stroke="black" points="799.2,-1124.43 791.51,-1117.13 792.97,-1127.63 799.2,-1124.43"/>
</g>
<!-- (cc &#45;39 5) -->
<g id="node36" class="node">
<title>(cc &#45;39 5)</title>
<ellipse fill="none" stroke="black" cx="857.19" cy="-954" rx="47.26" ry="18"/>
<text text-anchor="middle" x="857.19" y="-948.95" font-family="Times,serif" font-size="14.00">(cc &#45;39 5)</text>
</g>
<!-- (cc 11 5)&#45;&gt;(cc &#45;39 5) -->
<g id="edge81" class="edge">
<title>(cc 11 5)&#45;&gt;(cc &#45;39 5)</title>
<path fill="none" stroke="black" d="M824.47,-1152.02C828.07,-1141.73 832.41,-1128.25 835.19,-1116 845.59,-1070.14 851.77,-1015.73 854.82,-983.36"/>
<polygon fill="black" stroke="black" points="858.29,-983.88 855.7,-973.6 851.32,-983.25 858.29,-983.88"/>
</g>
<!-- (cc 11 3) -->
<g id="node3" class="node">
<title>(cc 11 3)</title>
<ellipse fill="none" stroke="black" cx="678.19" cy="-1026" rx="44.19" ry="18"/>
<text text-anchor="middle" x="678.19" y="-1020.95" font-family="Times,serif" font-size="14.00">(cc 11 3)</text>
</g>
<!-- (cc 11 4)&#45;&gt;(cc 11 3) -->
<g id="edge2" class="edge">
<title>(cc 11 4)&#45;&gt;(cc 11 3)</title>
<path fill="none" stroke="black" d="M759.88,-1081.98C745.21,-1072.11 725.8,-1059.05 709.58,-1048.13"/>
<polygon fill="black" stroke="black" points="711.97,-1045.52 701.72,-1042.84 708.06,-1051.32 711.97,-1045.52"/>
</g>
<!-- (cc &#45;14 4) -->
<g id="node35" class="node">
<title>(cc &#45;14 4)</title>
<ellipse fill="none" stroke="black" cx="782.19" cy="-882" rx="47.26" ry="18"/>
<text text-anchor="middle" x="782.19" y="-876.95" font-family="Times,serif" font-size="14.00">(cc &#45;14 4)</text>
</g>
<!-- (cc 11 4)&#45;&gt;(cc &#45;14 4) -->
<g id="edge79" class="edge">
<title>(cc 11 4)&#45;&gt;(cc &#45;14 4)</title>
<path fill="none" stroke="black" d="M782.19,-1079.85C782.19,-1043.14 782.19,-956.66 782.19,-911.53"/>
<polygon fill="black" stroke="black" points="785.69,-911.75 782.19,-901.75 778.69,-911.75 785.69,-911.75"/>
</g>
<!-- (cc 11 2) -->
<g id="node4" class="node">
<title>(cc 11 2)</title>
<ellipse fill="none" stroke="black" cx="471.19" cy="-954" rx="44.19" ry="18"/>
<text text-anchor="middle" x="471.19" y="-948.95" font-family="Times,serif" font-size="14.00">(cc 11 2)</text>
</g>
<!-- (cc 11 3)&#45;&gt;(cc 11 2) -->
<g id="edge3" class="edge">
<title>(cc 11 3)&#45;&gt;(cc 11 2)</title>
<path fill="none" stroke="black" d="M644.93,-1013.75C609.62,-1001.81 553.66,-982.89 514.83,-969.76"/>
<polygon fill="black" stroke="black" points="516.39,-966.59 505.8,-966.7 514.15,-973.22 516.39,-966.59"/>
</g>
<!-- (cc 1 3) -->
<g id="node33" class="node">
<title>(cc 1 3)</title>
<ellipse fill="none" stroke="black" cx="678.19" cy="-306" rx="39.58" ry="18"/>
<text text-anchor="middle" x="678.19" y="-300.95" font-family="Times,serif" font-size="14.00">(cc 1 3)</text>
</g>
<!-- (cc 11 3)&#45;&gt;(cc 1 3) -->
<g id="edge68" class="edge">
<title>(cc 11 3)&#45;&gt;(cc 1 3)</title>
<path fill="none" stroke="black" d="M678.19,-1007.51C678.19,-980.71 678.19,-927.87 678.19,-883 678.19,-883 678.19,-883 678.19,-449 678.19,-409.74 678.19,-364.38 678.19,-335.69"/>
<polygon fill="black" stroke="black" points="681.69,-336 678.19,-326 674.69,-336 681.69,-336"/>
</g>
<!-- (cc 11 1) -->
<g id="node5" class="node">
<title>(cc 11 1)</title>
<ellipse fill="none" stroke="black" cx="184.19" cy="-882" rx="44.19" ry="18"/>
<text text-anchor="middle" x="184.19" y="-876.95" font-family="Times,serif" font-size="14.00">(cc 11 1)</text>
</g>
<!-- (cc 11 2)&#45;&gt;(cc 11 1) -->
<g id="edge4" class="edge">
<title>(cc 11 2)&#45;&gt;(cc 11 1)</title>
<path fill="none" stroke="black" d="M433.96,-943.92C382.34,-931.33 289,-908.56 232.2,-894.71"/>
<polygon fill="black" stroke="black" points="233.36,-891.39 222.82,-892.42 231.7,-898.19 233.36,-891.39"/>
</g>
<!-- (cc 6 2) -->
<g id="node30" class="node">
<title>(cc 6 2)</title>
<ellipse fill="none" stroke="black" cx="471.19" cy="-594" rx="39.58" ry="18"/>
<text text-anchor="middle" x="471.19" y="-588.95" font-family="Times,serif" font-size="14.00">(cc 6 2)</text>
</g>
<!-- (cc 11 2)&#45;&gt;(cc 6 2) -->
<g id="edge39" class="edge">
<title>(cc 11 2)&#45;&gt;(cc 6 2)</title>
<path fill="none" stroke="black" d="M471.19,-935.51C471.19,-908.71 471.19,-855.87 471.19,-811 471.19,-811 471.19,-811 471.19,-737 471.19,-697.74 471.19,-652.38 471.19,-623.69"/>
<polygon fill="black" stroke="black" points="474.69,-624 471.19,-614 467.69,-624 474.69,-624"/>
</g>
<!-- (cc 11 0) -->
<g id="node6" class="node">
<title>(cc 11 0)</title>
<ellipse fill="none" stroke="black" cx="44.19" cy="-810" rx="44.19" ry="18"/>
<text text-anchor="middle" x="44.19" y="-804.95" font-family="Times,serif" font-size="14.00">(cc 11 0)</text>
</g>
<!-- (cc 11 1)&#45;&gt;(cc 11 0) -->
<g id="edge5" class="edge">
<title>(cc 11 1)&#45;&gt;(cc 11 0)</title>
<path fill="none" stroke="black" d="M157.19,-867.5C135.6,-856.71 105.09,-841.45 81.21,-829.51"/>
<polygon fill="black" stroke="black" points="82.96,-826.47 72.45,-825.13 79.83,-832.73 82.96,-826.47"/>
</g>
<!-- (cc 10 1) -->
<g id="node8" class="node">
<title>(cc 10 1)</title>
<ellipse fill="none" stroke="black" cx="184.19" cy="-810" rx="44.19" ry="18"/>
<text text-anchor="middle" x="184.19" y="-804.95" font-family="Times,serif" font-size="14.00">(cc 10 1)</text>
</g>
<!-- (cc 11 1)&#45;&gt;(cc 10 1) -->
<g id="edge7" class="edge">
<title>(cc 11 1)&#45;&gt;(cc 10 1)</title>
<path fill="none" stroke="black" d="M184.19,-863.7C184.19,-856.41 184.19,-847.73 184.19,-839.54"/>
<polygon fill="black" stroke="black" points="187.69,-839.62 184.19,-829.62 180.69,-839.62 187.69,-839.62"/>
</g>
<!-- 0 -->
<g id="node7" class="node">
<title>0</title>
<ellipse fill="none" stroke="black" cx="436.19" cy="-18" rx="27" ry="18"/>
<text text-anchor="middle" x="436.19" y="-12.95" font-family="Times,serif" font-size="14.00">0</text>
</g>
<!-- (cc 11 0)&#45;&gt;0 -->
<g id="edge6" class="edge">
<title>(cc 11 0)&#45;&gt;0</title>
<path fill="none" stroke="black" d="M40.75,-791.59C35.78,-764.9 27.19,-712.19 27.19,-667 27.19,-667 27.19,-667 27.19,-161 27.19,-116.47 36.93,-97.85 73.19,-72 124.71,-35.26 314.99,-23.62 397.55,-20.25"/>
<polygon fill="black" stroke="black" points="397.55,-23.76 407.4,-19.87 397.28,-16.76 397.55,-23.76"/>
</g>
<!-- (cc 10 0) -->
<g id="node9" class="node">
<title>(cc 10 0)</title>
<ellipse fill="none" stroke="black" cx="99.19" cy="-738" rx="44.19" ry="18"/>
<text text-anchor="middle" x="99.19" y="-732.95" font-family="Times,serif" font-size="14.00">(cc 10 0)</text>
</g>
<!-- (cc 10 1)&#45;&gt;(cc 10 0) -->
<g id="edge8" class="edge">
<title>(cc 10 1)&#45;&gt;(cc 10 0)</title>
<path fill="none" stroke="black" d="M165.32,-793.46C153.99,-784.13 139.36,-772.09 126.75,-761.7"/>
<polygon fill="black" stroke="black" points="129.11,-759.11 119.17,-755.45 124.66,-764.51 129.11,-759.11"/>
</g>
<!-- (cc 9 1) -->
<g id="node10" class="node">
<title>(cc 9 1)</title>
<ellipse fill="none" stroke="black" cx="201.19" cy="-738" rx="39.58" ry="18"/>
<text text-anchor="middle" x="201.19" y="-732.95" font-family="Times,serif" font-size="14.00">(cc 9 1)</text>
</g>
<!-- (cc 10 1)&#45;&gt;(cc 9 1) -->
<g id="edge10" class="edge">
<title>(cc 10 1)&#45;&gt;(cc 9 1)</title>
<path fill="none" stroke="black" d="M188.39,-791.7C190.18,-784.32 192.32,-775.52 194.33,-767.25"/>
<polygon fill="black" stroke="black" points="197.72,-768.12 196.67,-757.58 190.91,-766.47 197.72,-768.12"/>
</g>
<!-- (cc 10 0)&#45;&gt;0 -->
<g id="edge9" class="edge">
<title>(cc 10 0)&#45;&gt;0</title>
<path fill="none" stroke="black" d="M92.31,-719.83C82.37,-693.44 65.19,-641.14 65.19,-595 65.19,-595 65.19,-595 65.19,-161 65.19,-116.47 75.15,-98.15 111.19,-72 156.37,-39.21 321.77,-25.61 397.66,-21"/>
<polygon fill="black" stroke="black" points="397.75,-24.5 407.53,-20.42 397.34,-17.51 397.75,-24.5"/>
</g>
<!-- (cc 9 0) -->
<g id="node11" class="node">
<title>(cc 9 0)</title>
<ellipse fill="none" stroke="black" cx="133.19" cy="-666" rx="39.58" ry="18"/>
<text text-anchor="middle" x="133.19" y="-660.95" font-family="Times,serif" font-size="14.00">(cc 9 0)</text>
</g>
<!-- (cc 9 1)&#45;&gt;(cc 9 0) -->
<g id="edge11" class="edge">
<title>(cc 9 1)&#45;&gt;(cc 9 0)</title>
<path fill="none" stroke="black" d="M185.76,-721.12C177.06,-712.17 166.03,-700.81 156.32,-690.81"/>
<polygon fill="black" stroke="black" points="159.09,-688.64 149.61,-683.91 154.07,-693.52 159.09,-688.64"/>
</g>
<!-- (cc 8 1) -->
<g id="node12" class="node">
<title>(cc 8 1)</title>
<ellipse fill="none" stroke="black" cx="230.19" cy="-666" rx="39.58" ry="18"/>
<text text-anchor="middle" x="230.19" y="-660.95" font-family="Times,serif" font-size="14.00">(cc 8 1)</text>
</g>
<!-- (cc 9 1)&#45;&gt;(cc 8 1) -->
<g id="edge13" class="edge">
<title>(cc 9 1)&#45;&gt;(cc 8 1)</title>
<path fill="none" stroke="black" d="M208.21,-720.05C211.41,-712.32 215.29,-702.96 218.89,-694.27"/>
<polygon fill="black" stroke="black" points="222.06,-695.77 222.65,-685.19 215.59,-693.09 222.06,-695.77"/>
</g>
<!-- (cc 9 0)&#45;&gt;0 -->
<g id="edge12" class="edge">
<title>(cc 9 0)&#45;&gt;0</title>
<path fill="none" stroke="black" d="M127.12,-647.76C118.35,-621.28 103.19,-568.86 103.19,-523 103.19,-523 103.19,-523 103.19,-161 103.19,-116.47 113.42,-98.53 149.19,-72 188.14,-43.11 329.31,-27.79 398.05,-21.9"/>
<polygon fill="black" stroke="black" points="398.04,-25.41 407.71,-21.1 397.46,-18.44 398.04,-25.41"/>
</g>
<!-- (cc 8 0) -->
<g id="node13" class="node">
<title>(cc 8 0)</title>
<ellipse fill="none" stroke="black" cx="171.19" cy="-522" rx="39.58" ry="18"/>
<text text-anchor="middle" x="171.19" y="-516.95" font-family="Times,serif" font-size="14.00">(cc 8 0)</text>
</g>
<!-- (cc 8 1)&#45;&gt;(cc 8 0) -->
<g id="edge14" class="edge">
<title>(cc 8 1)&#45;&gt;(cc 8 0)</title>
<path fill="none" stroke="black" d="M215.18,-649.03C206.63,-639.09 196.41,-625.63 190.19,-612 181.45,-592.88 176.66,-569.58 174.08,-551.63"/>
<polygon fill="black" stroke="black" points="177.58,-551.41 172.84,-541.93 170.64,-552.29 177.58,-551.41"/>
</g>
<!-- (cc 7 1) -->
<g id="node14" class="node">
<title>(cc 7 1)</title>
<ellipse fill="none" stroke="black" cx="239.19" cy="-594" rx="39.58" ry="18"/>
<text text-anchor="middle" x="239.19" y="-588.95" font-family="Times,serif" font-size="14.00">(cc 7 1)</text>
</g>
<!-- (cc 8 1)&#45;&gt;(cc 7 1) -->
<g id="edge16" class="edge">
<title>(cc 8 1)&#45;&gt;(cc 7 1)</title>
<path fill="none" stroke="black" d="M232.41,-647.7C233.36,-640.32 234.49,-631.52 235.55,-623.25"/>
<polygon fill="black" stroke="black" points="238.99,-623.97 236.79,-613.61 232.05,-623.08 238.99,-623.97"/>
</g>
<!-- (cc 8 0)&#45;&gt;0 -->
<g id="edge15" class="edge">
<title>(cc 8 0)&#45;&gt;0</title>
<path fill="none" stroke="black" d="M165.12,-503.76C156.35,-477.28 141.19,-424.86 141.19,-379 141.19,-379 141.19,-379 141.19,-161 141.19,-116.27 152.51,-98.99 188.19,-72 220.85,-47.28 337.08,-30.49 398.12,-23.17"/>
<polygon fill="black" stroke="black" points="398.52,-26.65 408.04,-22.01 397.7,-19.69 398.52,-26.65"/>
</g>
<!-- (cc 7 0) -->
<g id="node15" class="node">
<title>(cc 7 0)</title>
<ellipse fill="none" stroke="black" cx="209.19" cy="-450" rx="39.58" ry="18"/>
<text text-anchor="middle" x="209.19" y="-444.95" font-family="Times,serif" font-size="14.00">(cc 7 0)</text>
</g>
<!-- (cc 7 1)&#45;&gt;(cc 7 0) -->
<g id="edge17" class="edge">
<title>(cc 7 1)&#45;&gt;(cc 7 0)</title>
<path fill="none" stroke="black" d="M235.51,-575.59C230.42,-551.5 221.18,-507.75 215.11,-479.03"/>
<polygon fill="black" stroke="black" points="218.61,-478.65 213.11,-469.59 211.76,-480.1 218.61,-478.65"/>
</g>
<!-- (cc 6 1) -->
<g id="node16" class="node">
<title>(cc 6 1)</title>
<ellipse fill="none" stroke="black" cx="335.19" cy="-522" rx="39.58" ry="18"/>
<text text-anchor="middle" x="335.19" y="-516.95" font-family="Times,serif" font-size="14.00">(cc 6 1)</text>
</g>
<!-- (cc 7 1)&#45;&gt;(cc 6 1) -->
<g id="edge19" class="edge">
<title>(cc 7 1)&#45;&gt;(cc 6 1)</title>
<path fill="none" stroke="black" d="M259.55,-578.15C273.04,-568.32 290.95,-555.26 305.95,-544.32"/>
<polygon fill="black" stroke="black" points="307.62,-547.44 313.63,-538.72 303.49,-541.78 307.62,-547.44"/>
</g>
<!-- (cc 7 0)&#45;&gt;0 -->
<g id="edge18" class="edge">
<title>(cc 7 0)&#45;&gt;0</title>
<path fill="none" stroke="black" d="M203.12,-431.76C194.35,-405.28 179.19,-352.86 179.19,-307 179.19,-307 179.19,-307 179.19,-161 179.19,-116.06 191.75,-99.63 227.19,-72 277.05,-33.12 352.09,-22.47 397.39,-19.73"/>
<polygon fill="black" stroke="black" points="397.45,-23.23 407.27,-19.24 397.11,-16.24 397.45,-23.23"/>
</g>
<!-- (cc 6 0) -->
<g id="node17" class="node">
<title>(cc 6 0)</title>
<ellipse fill="none" stroke="black" cx="247.19" cy="-378" rx="39.58" ry="18"/>
<text text-anchor="middle" x="247.19" y="-372.95" font-family="Times,serif" font-size="14.00">(cc 6 0)</text>
</g>
<!-- (cc 6 1)&#45;&gt;(cc 6 0) -->
<g id="edge20" class="edge">
<title>(cc 6 1)&#45;&gt;(cc 6 0)</title>
<path fill="none" stroke="black" d="M320.8,-504.99C303.23,-480.96 274.59,-435.27 258.5,-406.02"/>
<polygon fill="black" stroke="black" points="261.69,-404.56 253.89,-397.39 255.51,-407.86 261.69,-404.56"/>
</g>
<!-- (cc 6 1)&#45;&gt;(cc 6 0) -->
<g id="edge41" class="edge">
<title>(cc 6 1)&#45;&gt;(cc 6 0)</title>
<path fill="none" stroke="black" d="M329.16,-503.87C316.4,-479.06 288.07,-432.96 268.14,-404.25"/>
<polygon fill="black" stroke="black" points="271,-402.23 262.35,-396.11 265.3,-406.29 271,-402.23"/>
</g>
<!-- (cc 5 1) -->
<g id="node18" class="node">
<title>(cc 5 1)</title>
<ellipse fill="none" stroke="black" cx="363.19" cy="-450" rx="39.58" ry="18"/>
<text text-anchor="middle" x="363.19" y="-444.95" font-family="Times,serif" font-size="14.00">(cc 5 1)</text>
</g>
<!-- (cc 6 1)&#45;&gt;(cc 5 1) -->
<g id="edge22" class="edge">
<title>(cc 6 1)&#45;&gt;(cc 5 1)</title>
<path fill="none" stroke="black" d="M336.19,-503.7C338.55,-495.75 342.17,-486.16 346.09,-477.34"/>
<polygon fill="black" stroke="black" points="349.15,-479.05 350.29,-468.51 342.83,-476.04 349.15,-479.05"/>
</g>
<!-- (cc 6 1)&#45;&gt;(cc 5 1) -->
<g id="edge43" class="edge">
<title>(cc 6 1)&#45;&gt;(cc 5 1)</title>
<path fill="none" stroke="black" d="M347.48,-504.76C351.44,-497.04 355.49,-487.59 358.7,-478.77"/>
<polygon fill="black" stroke="black" points="361.93,-480.15 361.76,-469.56 355.28,-477.95 361.93,-480.15"/>
</g>
<!-- (cc 6 0)&#45;&gt;0 -->
<g id="edge21" class="edge">
<title>(cc 6 0)&#45;&gt;0</title>
<path fill="none" stroke="black" d="M237.32,-360.07C227.92,-333.57 217.19,-280.61 217.19,-235 217.19,-235 217.19,-235 217.19,-161 217.19,-119.53 215.55,-101.01 245.19,-72 285.71,-32.34 354.13,-22.06 397.28,-19.57"/>
<polygon fill="black" stroke="black" points="397.39,-23.07 407.23,-19.13 397.08,-16.08 397.39,-23.07"/>
</g>
<!-- (cc 6 0)&#45;&gt;0 -->
<g id="edge42" class="edge">
<title>(cc 6 0)&#45;&gt;0</title>
<path fill="none" stroke="black" d="M248.7,-359.63C245.8,-332.99 235.19,-280.36 235.19,-235 235.19,-235 235.19,-235 235.19,-161 235.19,-119.53 233.55,-101.01 263.19,-72 299.63,-36.33 358.65,-24.42 397.55,-20.58"/>
<polygon fill="black" stroke="black" points="397.75,-24.08 407.43,-19.76 397.17,-17.1 397.75,-24.08"/>
</g>
<!-- (cc 5 0) -->
<g id="node19" class="node">
<title>(cc 5 0)</title>
<ellipse fill="none" stroke="black" cx="303.19" cy="-90" rx="39.58" ry="18"/>
<text text-anchor="middle" x="303.19" y="-84.95" font-family="Times,serif" font-size="14.00">(cc 5 0)</text>
</g>
<!-- (cc 5 1)&#45;&gt;(cc 5 0) -->
<g id="edge23" class="edge">
<title>(cc 5 1)&#45;&gt;(cc 5 0)</title>
<path fill="none" stroke="black" d="M351.76,-432.33C348.29,-421.91 345.43,-408.2 343.19,-396 324.55,-294.71 306.3,-173.75 302.14,-119.63"/>
<polygon fill="black" stroke="black" points="305.64,-119.52 301.53,-109.76 298.66,-119.95 305.64,-119.52"/>
</g>
<!-- (cc 5 1)&#45;&gt;(cc 5 0) -->
<g id="edge44" class="edge">
<title>(cc 5 1)&#45;&gt;(cc 5 0)</title>
<path fill="none" stroke="black" d="M367.24,-431.85C366.2,-421.49 363.4,-408.02 361.19,-396 342.46,-294.25 324.13,-172.66 312.38,-118.9"/>
<polygon fill="black" stroke="black" points="315.85,-118.33 310.18,-109.38 309.03,-119.92 315.85,-118.33"/>
</g>
<!-- (cc 4 1) -->
<g id="node20" class="node">
<title>(cc 4 1)</title>
<ellipse fill="none" stroke="black" cx="401.19" cy="-378" rx="39.58" ry="18"/>
<text text-anchor="middle" x="401.19" y="-372.95" font-family="Times,serif" font-size="14.00">(cc 4 1)</text>
</g>
<!-- (cc 5 1)&#45;&gt;(cc 4 1) -->
<g id="edge25" class="edge">
<title>(cc 5 1)&#45;&gt;(cc 4 1)</title>
<path fill="none" stroke="black" d="M366.66,-431.7C370.23,-423.58 375.37,-413.74 380.66,-404.76"/>
<polygon fill="black" stroke="black" points="383.54,-406.77 385.83,-396.43 377.59,-403.08 383.54,-406.77"/>
</g>
<!-- (cc 5 1)&#45;&gt;(cc 4 1) -->
<g id="edge46" class="edge">
<title>(cc 5 1)&#45;&gt;(cc 4 1)</title>
<path fill="none" stroke="black" d="M377.57,-433.12C382.76,-425.23 388.34,-415.48 392.9,-406.43"/>
<polygon fill="black" stroke="black" points="395.94,-408.19 397.06,-397.66 389.62,-405.19 395.94,-408.19"/>
</g>
<!-- (cc 5 0)&#45;&gt;0 -->
<g id="edge24" class="edge">
<title>(cc 5 0)&#45;&gt;0</title>
<path fill="none" stroke="black" d="M324.85,-74.67C346.19,-62.61 378.77,-45.46 403.27,-33.39"/>
<polygon fill="black" stroke="black" points="404.73,-36.57 412.19,-29.06 401.67,-30.28 404.73,-36.57"/>
</g>
<!-- (cc 5 0)&#45;&gt;0 -->
<g id="edge45" class="edge">
<title>(cc 5 0)&#45;&gt;0</title>
<path fill="none" stroke="black" d="M331.29,-76.97C353.78,-66.03 384.98,-49.75 407.58,-37.22"/>
<polygon fill="black" stroke="black" points="409.28,-40.28 416.28,-32.33 405.85,-34.17 409.28,-40.28"/>
</g>
<!-- (cc 4 0) -->
<g id="node21" class="node">
<title>(cc 4 0)</title>
<ellipse fill="none" stroke="black" cx="400.19" cy="-306" rx="39.58" ry="18"/>
<text text-anchor="middle" x="400.19" y="-300.95" font-family="Times,serif" font-size="14.00">(cc 4 0)</text>
</g>
<!-- (cc 4 1)&#45;&gt;(cc 4 0) -->
<g id="edge26" class="edge">
<title>(cc 4 1)&#45;&gt;(cc 4 0)</title>
<path fill="none" stroke="black" d="M395.07,-360.05C394.18,-352.68 393.8,-343.84 393.95,-335.51"/>
<polygon fill="black" stroke="black" points="397.43,-335.95 394.44,-325.79 390.44,-335.6 397.43,-335.95"/>
</g>
<!-- (cc 4 1)&#45;&gt;(cc 4 0) -->
<g id="edge47" class="edge">
<title>(cc 4 1)&#45;&gt;(cc 4 0)</title>
<path fill="none" stroke="black" d="M406.85,-359.7C407.5,-352.41 407.62,-343.73 407.24,-335.54"/>
<polygon fill="black" stroke="black" points="410.73,-335.3 406.45,-325.61 403.76,-335.86 410.73,-335.3"/>
</g>
<!-- (cc 3 1) -->
<g id="node22" class="node">
<title>(cc 3 1)</title>
<ellipse fill="none" stroke="black" cx="497.19" cy="-306" rx="39.58" ry="18"/>
<text text-anchor="middle" x="497.19" y="-300.95" font-family="Times,serif" font-size="14.00">(cc 3 1)</text>
</g>
<!-- (cc 4 1)&#45;&gt;(cc 3 1) -->
<g id="edge28" class="edge">
<title>(cc 4 1)&#45;&gt;(cc 3 1)</title>
<path fill="none" stroke="black" d="M417.21,-361.12C429.88,-351.03 447.77,-337.88 463.48,-327.07"/>
<polygon fill="black" stroke="black" points="465.34,-330.04 471.66,-321.54 461.42,-324.24 465.34,-330.04"/>
</g>
<!-- (cc 4 1)&#45;&gt;(cc 3 1) -->
<g id="edge49" class="edge">
<title>(cc 4 1)&#45;&gt;(cc 3 1)</title>
<path fill="none" stroke="black" d="M425.4,-363.34C439.78,-353.81 457.83,-340.86 472.31,-329.79"/>
<polygon fill="black" stroke="black" points="474.3,-332.67 480.04,-323.76 470,-327.15 474.3,-332.67"/>
</g>
<!-- (cc 4 0)&#45;&gt;0 -->
<g id="edge27" class="edge">
<title>(cc 4 0)&#45;&gt;0</title>
<path fill="none" stroke="black" d="M394.46,-287.99C390.63,-258.51 391.07,-196.11 398.19,-144 402.89,-109.55 412.64,-70.63 421.57,-45.51"/>
<polygon fill="black" stroke="black" points="424.75,-47.01 425.06,-36.42 418.21,-44.5 424.75,-47.01"/>
</g>
<!-- (cc 4 0)&#45;&gt;0 -->
<g id="edge48" class="edge">
<title>(cc 4 0)&#45;&gt;0</title>
<path fill="none" stroke="black" d="M405.33,-287.99C408.63,-258.51 409.07,-196.11 416.19,-144 420.77,-110.42 430.15,-72.62 435.11,-47.46"/>
<polygon fill="black" stroke="black" points="438.54,-48.16 436.88,-37.69 431.66,-46.91 438.54,-48.16"/>
</g>
<!-- (cc 3 0) -->
<g id="node23" class="node">
<title>(cc 3 0)</title>
<ellipse fill="none" stroke="black" cx="456.19" cy="-162" rx="39.58" ry="18"/>
<text text-anchor="middle" x="456.19" y="-156.95" font-family="Times,serif" font-size="14.00">(cc 3 0)</text>
</g>
<!-- (cc 3 1)&#45;&gt;(cc 3 0) -->
<g id="edge29" class="edge">
<title>(cc 3 1)&#45;&gt;(cc 3 0)</title>
<path fill="none" stroke="black" d="M487.77,-288.15C478.31,-264.26 465.28,-220.23 458.83,-191.28"/>
<polygon fill="black" stroke="black" points="462.32,-190.84 456.88,-181.75 455.46,-192.25 462.32,-190.84"/>
</g>
<!-- (cc 3 1)&#45;&gt;(cc 3 0) -->
<g id="edge50" class="edge">
<title>(cc 3 1)&#45;&gt;(cc 3 0)</title>
<path fill="none" stroke="black" d="M496.77,-287.59C492.29,-263.27 479.75,-218.89 469.48,-190.19"/>
<polygon fill="black" stroke="black" points="472.86,-189.22 466.07,-181.09 466.3,-191.68 472.86,-189.22"/>
</g>
<!-- (cc 2 1) -->
<g id="node24" class="node">
<title>(cc 2 1)</title>
<ellipse fill="none" stroke="black" cx="533.19" cy="-234" rx="39.58" ry="18"/>
<text text-anchor="middle" x="533.19" y="-228.95" font-family="Times,serif" font-size="14.00">(cc 2 1)</text>
</g>
<!-- (cc 3 1)&#45;&gt;(cc 2 1) -->
<g id="edge31" class="edge">
<title>(cc 3 1)&#45;&gt;(cc 2 1)</title>
<path fill="none" stroke="black" d="M500.17,-287.7C503.47,-279.67 508.26,-269.95 513.24,-261.05"/>
<polygon fill="black" stroke="black" points="516.25,-262.84 518.32,-252.45 510.22,-259.28 516.25,-262.84"/>
</g>
<!-- (cc 3 1)&#45;&gt;(cc 2 1) -->
<g id="edge52" class="edge">
<title>(cc 3 1)&#45;&gt;(cc 2 1)</title>
<path fill="none" stroke="black" d="M511.34,-288.76C516.23,-280.95 521.43,-271.37 525.67,-262.48"/>
<polygon fill="black" stroke="black" points="528.79,-264.07 529.66,-253.51 522.39,-261.22 528.79,-264.07"/>
</g>
<!-- (cc 3 0)&#45;&gt;0 -->
<g id="edge30" class="edge">
<title>(cc 3 0)&#45;&gt;0</title>
<path fill="none" stroke="black" d="M449.19,-143.87C443.3,-119.99 436.84,-76.38 434.67,-47.54"/>
<polygon fill="black" stroke="black" points="438.17,-47.48 434.1,-37.7 431.18,-47.89 438.17,-47.48"/>
</g>
<!-- (cc 3 0)&#45;&gt;0 -->
<g id="edge51" class="edge">
<title>(cc 3 0)&#45;&gt;0</title>
<path fill="none" stroke="black" d="M458.35,-143.59C457.46,-119.37 451.54,-75.28 445.54,-46.57"/>
<polygon fill="black" stroke="black" points="449.03,-46.13 443.4,-37.15 442.2,-47.67 449.03,-46.13"/>
</g>
<!-- (cc 2 0) -->
<g id="node25" class="node">
<title>(cc 2 0)</title>
<ellipse fill="none" stroke="black" cx="513.19" cy="-90" rx="39.58" ry="18"/>
<text text-anchor="middle" x="513.19" y="-84.95" font-family="Times,serif" font-size="14.00">(cc 2 0)</text>
</g>
<!-- (cc 2 1)&#45;&gt;(cc 2 0) -->
<g id="edge32" class="edge">
<title>(cc 2 1)&#45;&gt;(cc 2 0)</title>
<path fill="none" stroke="black" d="M526.19,-215.87C520.3,-191.99 513.84,-148.38 511.67,-119.54"/>
<polygon fill="black" stroke="black" points="515.17,-119.48 511.1,-109.7 508.18,-119.89 515.17,-119.48"/>
</g>
<!-- (cc 2 1)&#45;&gt;(cc 2 0) -->
<g id="edge53" class="edge">
<title>(cc 2 1)&#45;&gt;(cc 2 0)</title>
<path fill="none" stroke="black" d="M535.35,-215.59C534.47,-191.5 528.6,-147.75 522.64,-119.03"/>
<polygon fill="black" stroke="black" points="526.12,-118.58 520.51,-109.59 519.29,-120.11 526.12,-118.58"/>
</g>
<!-- (cc 1 1) -->
<g id="node26" class="node">
<title>(cc 1 1)</title>
<ellipse fill="none" stroke="black" cx="610.19" cy="-162" rx="39.58" ry="18"/>
<text text-anchor="middle" x="610.19" y="-156.95" font-family="Times,serif" font-size="14.00">(cc 1 1)</text>
</g>
<!-- (cc 2 1)&#45;&gt;(cc 1 1) -->
<g id="edge34" class="edge">
<title>(cc 2 1)&#45;&gt;(cc 1 1)</title>
<path fill="none" stroke="black" d="M545.59,-216.41C554.92,-207 567.83,-195.12 579.73,-184.94"/>
<polygon fill="black" stroke="black" points="581.97,-187.64 587.4,-178.54 577.48,-182.27 581.97,-187.64"/>
</g>
<!-- (cc 2 1)&#45;&gt;(cc 1 1) -->
<g id="edge55" class="edge">
<title>(cc 2 1)&#45;&gt;(cc 1 1)</title>
<path fill="none" stroke="black" d="M554.73,-218.5C565.76,-209.52 578.97,-197.77 589.82,-187.4"/>
<polygon fill="black" stroke="black" points="592.15,-190.01 596.84,-180.51 587.25,-185.01 592.15,-190.01"/>
</g>
<!-- (cc 2 0)&#45;&gt;0 -->
<g id="edge33" class="edge">
<title>(cc 2 0)&#45;&gt;0</title>
<path fill="none" stroke="black" d="M491.64,-74.5C480.3,-65.27 466.65,-53.11 455.64,-42.52"/>
<polygon fill="black" stroke="black" points="458.13,-40.06 448.55,-35.52 453.21,-45.04 458.13,-40.06"/>
</g>
<!-- (cc 2 0)&#45;&gt;0 -->
<g id="edge54" class="edge">
<title>(cc 2 0)&#45;&gt;0</title>
<path fill="none" stroke="black" d="M500.78,-72.41C490.72,-62.26 476.47,-49.22 463.84,-38.57"/>
<polygon fill="black" stroke="black" points="466.13,-35.92 456.18,-32.27 461.68,-41.32 466.13,-35.92"/>
</g>
<!-- (cc 1 0) -->
<g id="node27" class="node">
<title>(cc 1 0)</title>
<ellipse fill="none" stroke="black" cx="610.19" cy="-90" rx="39.58" ry="18"/>
<text text-anchor="middle" x="610.19" y="-84.95" font-family="Times,serif" font-size="14.00">(cc 1 0)</text>
</g>
<!-- (cc 1 1)&#45;&gt;(cc 1 0) -->
<g id="edge35" class="edge">
<title>(cc 1 1)&#45;&gt;(cc 1 0)</title>
<path fill="none" stroke="black" d="M593.03,-145.46C590.13,-137.31 589.27,-127.08 590.45,-117.7"/>
<polygon fill="black" stroke="black" points="593.86,-118.5 592.7,-107.97 587.04,-116.92 593.86,-118.5"/>
</g>
<!-- (cc 1 1)&#45;&gt;(cc 1 0) -->
<g id="edge56" class="edge">
<title>(cc 1 1)&#45;&gt;(cc 1 0)</title>
<path fill="none" stroke="black" d="M604.31,-144.05C603.53,-136.68 603.27,-127.84 603.54,-119.51"/>
<polygon fill="black" stroke="black" points="607.02,-119.99 604.17,-109.79 600.03,-119.54 607.02,-119.99"/>
</g>
<!-- (cc 1 1)&#45;&gt;(cc 1 0) -->
<g id="edge62" class="edge">
<title>(cc 1 1)&#45;&gt;(cc 1 0)</title>
<path fill="none" stroke="black" d="M616.06,-144.05C616.85,-136.68 617.1,-127.84 616.83,-119.51"/>
<polygon fill="black" stroke="black" points="620.34,-119.54 616.2,-109.79 613.36,-119.99 620.34,-119.54"/>
</g>
<!-- (cc 1 1)&#45;&gt;(cc 1 0) -->
<g id="edge71" class="edge">
<title>(cc 1 1)&#45;&gt;(cc 1 0)</title>
<path fill="none" stroke="black" d="M627.35,-145.46C630.25,-137.31 631.11,-127.08 629.92,-117.7"/>
<polygon fill="black" stroke="black" points="633.33,-116.92 627.67,-107.97 626.51,-118.5 633.33,-116.92"/>
</g>
<!-- (cc 0 1) -->
<g id="node28" class="node">
<title>(cc 0 1)</title>
<ellipse fill="none" stroke="black" cx="925.19" cy="-90" rx="39.58" ry="18"/>
<text text-anchor="middle" x="925.19" y="-84.95" font-family="Times,serif" font-size="14.00">(cc 0 1)</text>
</g>
<!-- (cc 1 1)&#45;&gt;(cc 0 1) -->
<g id="edge37" class="edge">
<title>(cc 1 1)&#45;&gt;(cc 0 1)</title>
<path fill="none" stroke="black" d="M626.8,-145.26C628.27,-144.82 629.74,-144.4 631.19,-144 714.45,-121.12 814.88,-103.9 875.37,-95.92"/>
<polygon fill="black" stroke="black" points="875.57,-99.42 885.05,-94.68 874.68,-92.48 875.57,-99.42"/>
</g>
<!-- (cc 1 1)&#45;&gt;(cc 0 1) -->
<g id="edge58" class="edge">
<title>(cc 1 1)&#45;&gt;(cc 0 1)</title>
<path fill="none" stroke="black" d="M636.2,-147.97C640.5,-146.53 644.92,-145.17 649.19,-144 727.25,-122.55 820.4,-106.07 876.19,-97.52"/>
<polygon fill="black" stroke="black" points="876.64,-100.99 886.01,-96.04 875.6,-94.07 876.64,-100.99"/>
</g>
<!-- (cc 1 1)&#45;&gt;(cc 0 1) -->
<g id="edge64" class="edge">
<title>(cc 1 1)&#45;&gt;(cc 0 1)</title>
<path fill="none" stroke="black" d="M643.23,-151.57C651.12,-148.9 659.43,-146.13 667.19,-144 739.84,-124.03 825.57,-108.38 877.72,-99.41"/>
<polygon fill="black" stroke="black" points="878.2,-102.88 887.47,-97.75 877.02,-95.98 878.2,-102.88"/>
</g>
<!-- (cc 1 1)&#45;&gt;(cc 0 1) -->
<g id="edge73" class="edge">
<title>(cc 1 1)&#45;&gt;(cc 0 1)</title>
<path fill="none" stroke="black" d="M647.55,-155.32C660.96,-151.72 673.68,-147.16 685.19,-144 752.26,-125.57 830.48,-110.81 879.71,-101.59"/>
<polygon fill="black" stroke="black" points="880.3,-105.05 889.49,-99.76 879.01,-98.16 880.3,-105.05"/>
</g>
<!-- (cc 1 0)&#45;&gt;0 -->
<g id="edge36" class="edge">
<title>(cc 1 0)&#45;&gt;0</title>
<path fill="none" stroke="black" d="M575.88,-80.7C542.44,-70.04 494.28,-51.25 463.4,-37.2"/>
<polygon fill="black" stroke="black" points="465.16,-34.16 454.62,-33.09 462.2,-40.5 465.16,-34.16"/>
</g>
<!-- (cc 1 0)&#45;&gt;0 -->
<g id="edge57" class="edge">
<title>(cc 1 0)&#45;&gt;0</title>
<path fill="none" stroke="black" d="M579.15,-78.52C547.71,-66.72 499.55,-47.43 467.88,-34.03"/>
<polygon fill="black" stroke="black" points="469.38,-30.86 458.81,-30.15 466.63,-37.3 469.38,-30.86"/>
</g>
<!-- (cc 1 0)&#45;&gt;0 -->
<g id="edge63" class="edge">
<title>(cc 1 0)&#45;&gt;0</title>
<path fill="none" stroke="black" d="M583.64,-76.16C553.36,-63.22 504.06,-43.41 470.81,-30.83"/>
<polygon fill="black" stroke="black" points="472.21,-27.62 461.62,-27.4 469.76,-34.18 472.21,-27.62"/>
</g>
<!-- (cc 1 0)&#45;&gt;0 -->
<g id="edge72" class="edge">
<title>(cc 1 0)&#45;&gt;0</title>
<path fill="none" stroke="black" d="M590.19,-74.15C560.57,-60.12 508.39,-39.51 472.26,-27.87"/>
<polygon fill="black" stroke="black" points="473.64,-24.63 463.05,-25.01 471.56,-31.32 473.64,-24.63"/>
</g>
<!-- 1 -->
<g id="node29" class="node">
<title>1</title>
<ellipse fill="none" stroke="black" cx="925.19" cy="-18" rx="27" ry="18"/>
<text text-anchor="middle" x="925.19" y="-12.95" font-family="Times,serif" font-size="14.00">1</text>
</g>
<!-- (cc 0 1)&#45;&gt;1 -->
<g id="edge38" class="edge">
<title>(cc 0 1)&#45;&gt;1</title>
<path fill="none" stroke="black" d="M908.03,-73.46C904.9,-64.66 904.14,-53.46 905.77,-43.5"/>
<polygon fill="black" stroke="black" points="909.09,-44.63 908.37,-34.06 902.34,-42.77 909.09,-44.63"/>
</g>
<!-- (cc 0 1)&#45;&gt;1 -->
<g id="edge59" class="edge">
<title>(cc 0 1)&#45;&gt;1</title>
<path fill="none" stroke="black" d="M919.31,-72.05C918.51,-64.57 918.26,-55.58 918.55,-47.14"/>
<polygon fill="black" stroke="black" points="922.04,-47.51 919.22,-37.3 915.05,-47.04 922.04,-47.51"/>
</g>
<!-- (cc 0 1)&#45;&gt;1 -->
<g id="edge65" class="edge">
<title>(cc 0 1)&#45;&gt;1</title>
<path fill="none" stroke="black" d="M931.06,-72.05C931.86,-64.57 932.11,-55.58 931.82,-47.14"/>
<polygon fill="black" stroke="black" points="935.32,-47.04 931.15,-37.3 928.34,-47.51 935.32,-47.04"/>
</g>
<!-- (cc 0 1)&#45;&gt;1 -->
<g id="edge74" class="edge">
<title>(cc 0 1)&#45;&gt;1</title>
<path fill="none" stroke="black" d="M942.35,-73.46C945.48,-64.66 946.23,-53.46 944.6,-43.5"/>
<polygon fill="black" stroke="black" points="948.03,-42.77 942,-34.06 941.28,-44.63 948.03,-42.77"/>
</g>
<!-- (cc 6 2)&#45;&gt;(cc 6 1) -->
<g id="edge40" class="edge">
<title>(cc 6 2)&#45;&gt;(cc 6 1)</title>
<path fill="none" stroke="black" d="M445.61,-579.83C424.43,-568.93 394.1,-553.32 370.59,-541.22"/>
<polygon fill="black" stroke="black" points="372.49,-538.26 362,-536.8 369.29,-544.49 372.49,-538.26"/>
</g>
<!-- (cc 1 2) -->
<g id="node31" class="node">
<title>(cc 1 2)</title>
<ellipse fill="none" stroke="black" cx="635.19" cy="-234" rx="39.58" ry="18"/>
<text text-anchor="middle" x="635.19" y="-228.95" font-family="Times,serif" font-size="14.00">(cc 1 2)</text>
</g>
<!-- (cc 6 2)&#45;&gt;(cc 1 2) -->
<g id="edge60" class="edge">
<title>(cc 6 2)&#45;&gt;(cc 1 2)</title>
<path fill="none" stroke="black" d="M494.58,-579.02C528.73,-556.64 588.19,-509.3 588.19,-451 588.19,-451 588.19,-451 588.19,-377 588.19,-335.28 606.7,-289.99 620.49,-262.05"/>
<polygon fill="black" stroke="black" points="623.56,-263.73 624.99,-253.24 617.32,-260.55 623.56,-263.73"/>
</g>
<!-- (cc 1 2)&#45;&gt;(cc 1 1) -->
<g id="edge61" class="edge">
<title>(cc 1 2)&#45;&gt;(cc 1 1)</title>
<path fill="none" stroke="black" d="M623.42,-216.41C619.95,-208.96 616.46,-199.96 613.71,-191.48"/>
<polygon fill="black" stroke="black" points="617.08,-190.52 610.91,-181.9 610.36,-192.48 617.08,-190.52"/>
</g>
<!-- (cc 1 2)&#45;&gt;(cc 1 1) -->
<g id="edge70" class="edge">
<title>(cc 1 2)&#45;&gt;(cc 1 1)</title>
<path fill="none" stroke="black" d="M634.92,-215.7C632.96,-207.95 629.86,-198.64 626.43,-190.02"/>
<polygon fill="black" stroke="black" points="629.72,-188.82 622.56,-181.01 623.29,-191.58 629.72,-188.82"/>
</g>
<!-- (cc &#45;4 2) -->
<g id="node32" class="node">
<title>(cc &#45;4 2)</title>
<ellipse fill="none" stroke="black" cx="710.19" cy="-162" rx="42.65" ry="18"/>
<text text-anchor="middle" x="710.19" y="-156.95" font-family="Times,serif" font-size="14.00">(cc &#45;4 2)</text>
</g>
<!-- (cc 1 2)&#45;&gt;(cc &#45;4 2) -->
<g id="edge66" class="edge">
<title>(cc 1 2)&#45;&gt;(cc &#45;4 2)</title>
<path fill="none" stroke="black" d="M647.12,-216.41C656.11,-207.07 668.58,-195.28 680.12,-185.15"/>
<polygon fill="black" stroke="black" points="682.23,-187.95 687.55,-178.79 677.68,-182.64 682.23,-187.95"/>
</g>
<!-- (cc 1 2)&#45;&gt;(cc &#45;4 2) -->
<g id="edge75" class="edge">
<title>(cc 1 2)&#45;&gt;(cc &#45;4 2)</title>
<path fill="none" stroke="black" d="M656.32,-218.5C667.01,-209.59 679.79,-197.94 690.29,-187.62"/>
<polygon fill="black" stroke="black" points="692.52,-190.34 697.08,-180.77 687.55,-185.41 692.52,-190.34"/>
</g>
<!-- (cc &#45;4 2)&#45;&gt;0 -->
<g id="edge67" class="edge">
<title>(cc &#45;4 2)&#45;&gt;0</title>
<path fill="none" stroke="black" d="M698.97,-144.46C689.31,-124.21 674.72,-90.34 650.19,-72 597.85,-32.88 520.9,-22.14 474.83,-19.47"/>
<polygon fill="black" stroke="black" points="475.2,-15.98 465.04,-19.01 474.87,-22.97 475.2,-15.98"/>
</g>
<!-- (cc &#45;4 2)&#45;&gt;0 -->
<g id="edge76" class="edge">
<title>(cc &#45;4 2)&#45;&gt;0</title>
<path fill="none" stroke="black" d="M711.36,-143.75C706.97,-123.43 692.43,-90.13 668.19,-72 611.09,-29.32 524.7,-20.42 474.9,-18.92"/>
<polygon fill="black" stroke="black" points="475.24,-15.43 465.17,-18.72 475.1,-22.43 475.24,-15.43"/>
</g>
<!-- (cc 1 3)&#45;&gt;(cc 1 2) -->
<g id="edge69" class="edge">
<title>(cc 1 3)&#45;&gt;(cc 1 2)</title>
<path fill="none" stroke="black" d="M668,-288.41C663.02,-280.3 656.9,-270.35 651.31,-261.25"/>
<polygon fill="black" stroke="black" points="654.31,-259.45 646.1,-252.76 648.35,-263.11 654.31,-259.45"/>
</g>
<!-- (cc &#45;9 3) -->
<g id="node34" class="node">
<title>(cc &#45;9 3)</title>
<ellipse fill="none" stroke="black" cx="744.19" cy="-234" rx="42.65" ry="18"/>
<text text-anchor="middle" x="744.19" y="-228.95" font-family="Times,serif" font-size="14.00">(cc &#45;9 3)</text>
</g>
<!-- (cc 1 3)&#45;&gt;(cc &#45;9 3) -->
<g id="edge77" class="edge">
<title>(cc 1 3)&#45;&gt;(cc &#45;9 3)</title>
<path fill="none" stroke="black" d="M693.16,-289.12C701.52,-280.26 712.09,-269.04 721.45,-259.12"/>
<polygon fill="black" stroke="black" points="723.92,-261.6 728.23,-251.92 718.82,-256.8 723.92,-261.6"/>
</g>
<!-- (cc &#45;9 3)&#45;&gt;0 -->
<g id="edge78" class="edge">
<title>(cc &#45;9 3)&#45;&gt;0</title>
<path fill="none" stroke="black" d="M753.09,-216.13C761.47,-197.87 771.47,-168.13 762.19,-144 746.71,-103.76 734.63,-93.36 697.19,-72 625.87,-31.32 527.91,-21.57 474.59,-19.42"/>
<polygon fill="black" stroke="black" points="474.91,-15.93 464.8,-19.1 474.68,-22.93 474.91,-15.93"/>
</g>
<!-- (cc &#45;14 4)&#45;&gt;0 -->
<g id="edge80" class="edge">
<title>(cc &#45;14 4)&#45;&gt;0</title>
<path fill="none" stroke="black" d="M789.67,-863.89C800.49,-837.58 819.19,-785.37 819.19,-739 819.19,-739 819.19,-739 819.19,-161 819.19,-106.61 783.05,-97.83 735.19,-72 650.55,-26.32 534.7,-18.83 475.1,-18.3"/>
<polygon fill="black" stroke="black" points="475.14,-14.8 465.13,-18.28 475.12,-21.8 475.14,-14.8"/>
</g>
<!-- (cc &#45;39 5)&#45;&gt;0 -->
<g id="edge82" class="edge">
<title>(cc &#45;39 5)&#45;&gt;0</title>
<path fill="none" stroke="black" d="M857.19,-935.51C857.19,-908.71 857.19,-855.87 857.19,-811 857.19,-811 857.19,-811 857.19,-161 857.19,-108.7 825.96,-97.32 780.19,-72 728.13,-43.21 552.66,-27.35 474.41,-21.57"/>
<polygon fill="black" stroke="black" points="474.89,-18.09 464.66,-20.86 474.39,-25.07 474.89,-18.09"/>
</g>
</g>
</svg>
